<?xml version="1.0" standalone="no"?>
<!DOCTYPE svg PUBLIC "-//W3C//DTD SVG 20010904//EN"
 "http://www.w3.org/TR/2001/REC-SVG-20010904/DTD/svg10.dtd">
<svg version="1.0" xmlns="http://www.w3.org/2000/svg"
 width="779.000000pt" height="779.000000pt" viewBox="0 0 779.000000 779.000000"
 preserveAspectRatio="xMidYMid meet">
<metadata>
Created by potrace 1.11, written by Peter Selinger 2001-2013
</metadata>
<g transform="translate(0.000000,779.000000) scale(0.100000,-0.100000)"
fill="#000000" stroke="none">
<path d="M853 7770 c-3 -11 -12 -20 -20 -20 -11 0 -14 -7 -10 -21 3 -12 2 -32
-3 -45 -6 -15 -5 -26 1 -30 6 -3 9 -15 6 -25 -3 -11 -1 -19 5 -19 6 0 8 -15 4
-37 -3 -21 -6 -58 -5 -82 0 -24 -5 -48 -12 -52 -12 -7 -15 -61 -4 -78 8 -14
53 8 60 28 2 9 5 30 6 46 2 49 -10 267 -17 287 -4 12 -1 18 8 16 8 -2 14 8 16
25 2 20 -1 27 -13 27 -9 0 -19 -9 -22 -20z"/>
<path d="M1018 7765 c-13 -30 -5 -43 17 -25 28 23 40 -2 26 -52 -7 -24 -13
-52 -14 -63 -1 -11 -5 -25 -9 -30 -4 -6 -3 -17 3 -25 5 -8 9 -24 9 -36 0 -11
11 -31 26 -44 35 -33 46 -14 41 69 -4 57 -2 67 25 107 23 35 27 48 19 58 -7 8
-9 25 -5 40 l6 26 -66 0 c-61 0 -67 -2 -78 -25z"/>
<path d="M1272 7757 c-10 -18 -21 -47 -24 -64 -4 -28 -2 -30 16 -23 12 4 23
20 27 36 3 16 11 39 17 51 15 28 15 33 -2 33 -8 0 -23 -15 -34 -33z"/>
<path d="M1466 7759 c-3 -18 -2 -37 2 -43 13 -17 14 -74 2 -81 -7 -5 -9 -26
-4 -61 7 -57 -5 -72 -27 -33 -9 17 -13 19 -20 8 -13 -22 -11 -62 6 -86 10 -14
12 -24 5 -28 -5 -3 -10 -15 -10 -26 0 -11 -7 -19 -16 -19 -11 0 -15 -9 -13
-32 1 -18 -2 -41 -6 -51 -4 -10 -5 -21 -1 -24 3 -3 0 -13 -7 -21 -9 -12 -9
-16 1 -19 6 -3 12 -9 12 -14 0 -6 -4 -8 -9 -4 -9 5 -28 -60 -23 -79 2 -4 -1
-13 -7 -20 -5 -6 -14 -38 -21 -71 -7 -33 -16 -64 -20 -70 -4 -5 -10 -27 -14
-47 -6 -30 -3 -42 14 -60 22 -24 26 -38 9 -38 -18 0 -38 -32 -39 -61 0 -14
-11 -35 -25 -47 -14 -12 -25 -31 -25 -42 0 -11 -4 -20 -8 -20 -15 0 -42 -56
-31 -67 13 -13 0 -110 -17 -128 -8 -7 -14 -18 -14 -24 0 -6 -4 -11 -10 -11 -5
0 -10 -12 -10 -27 0 -33 -45 -93 -70 -93 -10 0 -22 -5 -25 -10 -9 -14 -24 -3
-37 28 -8 19 -12 22 -15 11 -6 -24 15 -71 29 -63 8 5 9 -2 4 -27 -12 -56 -13
-103 -3 -126 7 -15 6 -27 -1 -35 -17 -21 -19 -114 -2 -103 6 3 14 4 19 1 14
-9 -18 -66 -37 -66 -22 0 -47 -38 -43 -66 1 -16 -3 -22 -16 -20 -26 2 -30 -34
-4 -41 11 -3 18 -9 16 -14 -3 -4 -11 -6 -18 -3 -12 4 -47 -58 -47 -84 0 -20
-17 -13 -23 8 -5 20 -37 29 -37 10 0 -5 -7 -10 -15 -10 -8 0 -15 9 -15 19 0
32 -18 34 -44 6 -18 -19 -26 -23 -32 -13 -13 21 -13 166 1 171 8 4 9 22 5 59
-7 63 -41 108 -66 87 -16 -13 -17 -76 -1 -96 5 -7 6 -21 2 -33 -4 -12 -1 -27
5 -35 7 -9 8 -15 2 -15 -9 0 -27 -55 -23 -74 1 -4 -10 -5 -24 -2 -23 6 -25 4
-26 -26 -1 -18 -2 -37 -3 -43 -6 -50 -63 -61 -58 -11 l3 29 -46 -28 c-30 -17
-50 -24 -57 -17 -15 15 -13 67 4 91 19 27 12 72 -11 69 -23 -4 -20 26 4 31 29
5 33 16 24 69 -4 28 -3 52 3 60 10 11 4 16 -16 13 -11 -2 -36 19 -36 30 0 5
11 9 25 9 18 0 25 5 25 19 0 11 13 29 30 41 16 12 29 25 27 29 -1 5 9 19 23
31 16 14 21 24 13 27 -7 2 -9 11 -6 19 3 8 -1 21 -8 30 -10 12 -9 18 4 31 14
15 14 18 -9 36 -23 18 -24 20 -8 32 20 14 28 51 14 60 -6 3 -10 20 -10 36 0
18 -6 32 -16 36 -13 5 -13 7 -2 14 10 7 10 9 -2 9 -12 1 -12 3 3 14 15 12 15
15 2 26 -8 7 -15 23 -15 36 0 19 5 24 25 24 l24 0 -24 26 c-27 29 -33 54 -12
54 8 0 7 3 -3 10 -10 6 -17 5 -23 -5 -14 -26 -28 -16 -25 18 2 27 8 33 31 35
22 3 27 -1 27 -17 0 -22 14 -28 25 -11 3 6 17 10 31 10 13 0 24 5 24 10 0 6 7
10 15 10 8 0 15 -4 15 -8 0 -4 11 -9 25 -10 29 -2 29 -2 10 44 -8 20 -19 33
-25 29 -6 -3 -8 -11 -5 -16 4 -5 -5 -9 -18 -9 -29 0 -40 35 -27 82 11 35 5
164 -8 198 -8 20 -5 29 13 46 31 29 41 90 19 115 -15 17 -15 21 -2 37 14 16
14 28 7 139 -2 23 0 46 4 49 4 4 0 15 -8 24 -9 10 -15 21 -14 26 6 35 -3 64
-19 64 -28 0 -73 -56 -76 -95 -1 -5 -17 -12 -36 -16 -19 -4 -36 -12 -38 -19
-5 -15 -66 -71 -118 -108 -26 -19 -43 -41 -47 -59 -4 -19 -21 -38 -52 -60 -26
-17 -77 -71 -115 -120 -38 -48 -76 -96 -85 -105 -13 -16 -15 -130 -15 -948 0
-881 1 -931 18 -928 12 2 18 -5 20 -26 4 -31 -17 -54 -30 -33 -4 7 -7 -177 -7
-408 0 -260 4 -424 10 -431 7 -8 6 -14 -1 -19 -7 -4 -10 -510 -10 -1635 0
-1542 1 -1630 17 -1638 10 -5 50 -12 88 -15 62 -4 144 -26 325 -87 30 -10 87
-20 125 -23 83 -5 107 -14 103 -36 -3 -12 -13 -15 -41 -13 -27 2 -37 -1 -37
-11 0 -23 25 -38 69 -40 26 -1 41 -6 41 -14 0 -13 12 -17 38 -14 10 2 12 -6 7
-29 -6 -27 -4 -32 14 -37 25 -6 39 -49 24 -72 -31 -50 -149 -85 -213 -63 -27
10 -30 9 -30 -9 0 -20 -8 -22 -86 -22 -39 0 -53 5 -128 46 -21 11 -34 13 -42
6 -8 -7 -14 -7 -19 1 -3 6 -10 8 -14 5 -5 -2 -16 4 -26 15 -10 11 -24 20 -32
20 -8 0 -21 7 -29 15 -9 8 -24 15 -34 15 -10 0 -22 5 -25 10 -3 6 -14 10 -24
10 -10 0 -30 11 -45 25 -25 23 -26 23 -26 4 0 -21 36 -58 56 -59 6 0 21 -11
34 -25 20 -22 25 -23 32 -10 5 8 14 15 20 15 7 0 6 -5 -2 -15 -15 -18 -5 -49
13 -42 6 2 19 -2 28 -9 8 -8 28 -15 44 -16 17 -2 36 -13 48 -30 12 -16 26 -28
33 -28 15 0 24 -22 19 -46 -2 -11 -4 -22 -4 -25 -1 -4 -9 -9 -19 -13 -9 -3
-24 -9 -32 -14 -8 -5 -42 -23 -75 -40 -33 -16 -89 -46 -125 -65 l-65 -35 -3
-71 -3 -71 561 0 c591 0 607 1 623 45 4 8 12 15 19 15 7 0 19 9 26 20 7 12 16
18 21 16 5 -3 20 4 33 17 14 12 34 27 44 33 18 10 18 12 1 38 -10 15 -26 26
-35 25 -31 -3 -32 1 -12 33 31 51 23 92 -10 53 -19 -23 -33 -18 -51 18 -12 25
-14 39 -7 53 17 30 68 74 87 74 9 0 22 5 28 11 7 7 19 9 28 5 13 -5 15 -15 11
-53 -3 -25 -10 -49 -15 -52 -15 -9 -2 -51 16 -51 8 0 11 5 8 10 -3 6 3 10 15
10 12 0 18 -4 15 -10 -3 -5 1 -10 9 -10 19 0 21 -11 5 -27 -8 -8 -8 -13 0 -17
16 -10 13 -50 -13 -158 l-23 -98 303 0 303 0 7 38 c4 20 15 60 24 87 10 28 28
84 40 125 12 41 25 84 30 95 15 40 39 131 45 170 4 22 18 59 31 83 24 40 41
57 31 30 -2 -7 -1 -20 3 -28 9 -17 -9 -100 -26 -121 -6 -8 -21 -50 -33 -94
-12 -44 -28 -102 -36 -129 -8 -28 -12 -52 -9 -55 10 -10 41 42 37 60 -3 11 0
19 6 19 19 0 9 -177 -12 -219 -9 -19 -17 -40 -17 -48 0 -11 171 -13 1015 -13
898 0 1014 2 1009 15 -4 8 -1 15 5 15 6 0 11 -7 11 -15 0 -13 101 -15 851 -15
l851 0 -7 68 c-4 37 -10 81 -15 97 -5 17 -11 62 -15 100 -3 39 -9 79 -12 90
-4 14 -2 17 5 10 10 -10 15 -24 45 -144 7 -30 19 -57 25 -59 7 -2 12 -2 12 1
0 25 -47 222 -70 289 -16 47 -29 99 -29 115 0 15 -9 75 -20 132 -11 57 -18
108 -15 112 11 18 21 8 32 -30 7 -21 19 -44 27 -51 8 -7 15 -18 15 -24 0 -7 6
-18 13 -24 6 -7 13 -23 14 -35 8 -95 26 -248 33 -277 5 -19 16 -84 25 -145 9
-60 21 -126 26 -146 5 -20 9 -46 9 -58 l0 -21 395 0 c417 0 414 0 380 44 -8
11 -15 27 -15 37 0 16 -23 77 -57 149 -9 19 -30 47 -47 62 -26 22 -30 33 -29
69 1 23 7 47 13 53 14 14 12 36 -4 36 -8 0 -24 8 -37 18 -20 17 -23 28 -24
115 -1 85 1 98 17 103 23 7 38 -3 38 -25 0 -9 5 -22 11 -28 6 -6 12 -44 12
-84 2 -69 4 -74 25 -77 19 -3 22 1 23 35 1 21 0 51 -1 66 -2 30 20 117 30 117
5 0 5 24 1 63 -1 4 -8 7 -16 7 -9 0 -18 7 -21 15 -4 8 -13 15 -21 15 -8 0 -11
5 -8 10 3 6 -3 10 -14 10 -11 0 -26 7 -35 15 -8 8 -23 15 -33 16 -10 0 -13 3
-6 5 15 6 5 34 -12 34 -22 0 -47 37 -40 59 4 14 2 21 -6 21 -9 0 -10 3 -3 10
22 22 218 -42 230 -75 4 -8 12 -15 20 -15 8 0 14 -4 14 -9 0 -5 15 -13 32 -17
18 -3 46 -17 63 -29 19 -13 41 -21 60 -19 16 2 33 -2 37 -9 6 -9 12 -9 28 1
24 15 50 16 50 2 0 -5 14 -10 30 -10 17 0 30 -4 30 -10 0 -5 7 -10 15 -10 8 0
31 -9 52 -20 35 -18 78 -29 128 -35 26 -2 46 -82 25 -95 -7 -5 -14 -19 -15
-32 -8 -100 -19 -169 -31 -200 -14 -37 -13 -38 15 -53 29 -14 29 -17 25 -72
-3 -32 -7 -69 -9 -83 -2 -14 3 -47 12 -75 30 -99 33 -105 63 -105 27 0 28 2
20 33 -5 17 -11 62 -15 99 -3 36 -13 87 -21 113 -9 33 -11 53 -4 66 18 32 35
11 53 -64 27 -112 32 -147 36 -224 1 -19 7 -23 36 -23 34 0 35 1 36 43 l0 42
17 -43 c17 -44 32 -55 32 -22 0 32 -36 157 -65 223 -22 52 -9 67 47 57 46 -9
71 -34 62 -63 -10 -32 -7 -150 5 -194 l12 -43 99 0 100 0 0 343 0 342 -92 39
c-129 55 -258 114 -288 132 -14 8 -38 22 -55 30 -16 8 -50 28 -75 44 -25 16
-79 47 -120 68 -41 22 -97 51 -124 66 -26 14 -52 23 -57 20 -13 -7 -1 -24 16
-24 16 0 85 -58 85 -71 0 -5 -7 -9 -17 -9 -9 0 -14 -3 -10 -6 7 -7 -17 -34
-31 -34 -5 0 -15 6 -21 14 -7 8 -27 18 -44 22 -18 3 -36 9 -42 13 -5 3 -28 11
-50 16 -22 6 -38 15 -35 20 3 6 10 8 15 6 6 -2 25 -4 43 -4 17 -1 32 -5 32 -9
0 -4 14 -8 30 -8 38 0 39 16 3 23 -16 3 -62 14 -103 25 -41 10 -111 27 -155
37 -109 23 -177 49 -307 116 -67 34 -157 56 -288 70 -170 18 -205 24 -202 34
1 6 43 9 104 8 78 -1 105 -5 113 -17 10 -13 16 -13 51 -1 30 10 35 15 22 20
-35 14 -8 21 54 14 35 -3 83 -15 108 -27 42 -19 105 -35 190 -48 31 -5 105
-28 165 -50 17 -7 18 -6 7 8 -7 9 -24 19 -38 22 -14 4 -43 18 -64 31 -21 13
-73 38 -116 55 -169 68 -164 64 -164 115 0 25 -4 45 -8 45 -4 0 -18 20 -30 45
-12 25 -19 45 -15 45 4 0 22 -15 41 -32 l33 -33 29 31 c23 26 29 45 35 104 6
63 12 77 46 118 21 26 50 61 64 79 26 32 37 74 55 208 12 97 18 114 55 162 26
35 34 57 44 130 7 48 19 112 26 141 16 59 11 84 -10 56 -7 -10 -19 -18 -28
-20 -23 -3 -5 49 32 91 16 18 35 50 42 69 11 31 16 35 38 29 14 -3 28 -6 31
-5 61 1 60 0 60 45 0 23 7 53 16 65 9 14 17 50 19 92 2 51 9 76 23 95 17 22
19 31 10 56 -14 42 -4 106 22 134 12 12 24 44 29 73 4 28 14 58 21 67 9 11 11
38 6 103 -6 83 -5 90 24 147 23 46 28 68 24 93 -5 27 -1 42 23 75 30 44 59
115 49 124 -3 3 1 18 9 34 8 15 15 38 15 50 0 27 21 89 31 89 8 0 24 42 34 84
3 16 17 43 31 59 15 18 24 41 24 62 0 24 8 42 27 59 14 13 27 37 29 52 2 16
19 43 41 65 21 20 47 54 58 75 11 22 24 42 29 46 6 4 9 22 8 41 -2 27 7 46 43
92 29 38 42 62 36 69 -6 7 -1 15 15 23 13 6 24 7 24 2 0 -14 27 -10 33 5 3 8
26 24 51 37 25 12 53 33 61 46 9 13 24 23 35 23 19 0 20 7 20 95 0 83 -2 95
-17 96 -10 1 -25 3 -33 4 -8 1 -23 3 -32 4 -10 0 -18 6 -18 11 0 12 -15 32
-47 62 -13 12 -23 28 -23 35 0 7 -4 13 -10 13 -18 0 -43 52 -42 87 1 20 -2 41
-7 47 -20 25 -33 150 -28 265 3 66 8 124 11 129 3 6 8 29 11 52 3 23 10 50 15
60 6 10 10 31 11 47 0 27 35 116 40 101 1 -5 2 -20 3 -35 1 -16 6 -43 10 -62
5 -22 5 -31 -2 -27 -10 6 -25 -24 -20 -40 1 -5 -4 -20 -11 -33 -7 -13 -11 -37
-8 -55 2 -17 0 -42 -5 -56 -14 -36 -16 -227 -3 -280 7 -28 18 -46 28 -48 21
-4 22 17 2 44 -12 18 -12 24 2 43 11 16 23 22 39 18 16 -3 24 0 24 9 0 8 5 14
11 14 6 0 9 -6 6 -13 -6 -16 48 -51 63 -42 6 3 10 1 10 -4 0 -6 5 -11 10 -11
6 0 10 90 10 250 l0 251 -27 25 -28 26 23 18 c30 25 29 44 -3 38 -26 -5 -31 1
-62 82 -10 27 -6 60 7 60 4 0 15 21 24 47 19 56 19 54 2 47 -9 -3 -20 4 -27
18 -7 13 -20 29 -30 36 -10 7 -16 19 -13 26 3 8 1 17 -5 20 -16 10 -43 -8 -66
-43 -23 -36 -40 -40 -48 -11 -3 11 -10 20 -16 20 -7 0 -9 -10 -5 -26 7 -26
-12 -74 -29 -74 -5 0 -4 7 3 15 10 12 9 15 -6 17 -11 0 -27 0 -37 0 -10 -1
-15 3 -12 8 3 6 13 10 21 10 8 0 14 6 14 14 0 20 -42 28 -60 11 -9 -8 -20 -15
-24 -15 -14 0 -37 -30 -31 -40 8 -12 -5 -13 -24 -1 -12 8 -13 15 -3 35 6 14 7
28 3 31 -5 2 -12 21 -15 40 -7 33 -25 49 -26 23 -1 -7 -9 3 -18 22 -10 19 -15
37 -10 40 15 11 -5 50 -29 56 -16 4 -22 11 -19 21 8 20 -4 64 -15 57 -5 -3 -6
2 -3 10 4 11 0 16 -10 16 -9 0 -16 5 -16 11 0 6 7 9 15 5 17 -6 18 2 20 126 0
56 -3 74 -11 67 -7 -6 -21 -2 -38 12 -15 12 -23 25 -18 28 5 3 12 15 14 26 2
11 10 19 17 17 7 -1 19 3 27 9 11 9 14 8 14 -2 1 -31 60 -79 60 -49 0 6 -7 10
-15 10 -8 0 -15 7 -15 15 0 8 5 15 10 15 6 0 10 -4 10 -10 0 -5 12 -17 27 -27
19 -13 28 -14 31 -5 2 7 8 10 13 7 4 -3 14 3 20 14 10 16 15 17 26 6 7 -8 13
-20 13 -28 0 -8 7 -20 15 -27 9 -7 14 -19 11 -26 -3 -7 10 -28 29 -46 128
-124 132 -130 126 -195 -1 -13 6 -26 18 -33 17 -9 19 -8 15 5 -10 25 12 17 26
-11 12 -21 12 -29 1 -46 -10 -17 -10 -19 1 -16 7 3 20 -7 28 -22 8 -14 34 -43
56 -63 41 -36 42 -37 47 -15 5 16 -1 30 -19 49 -14 15 -21 29 -16 33 6 3 6 23
2 48 -5 24 -6 46 -4 50 9 15 34 8 34 -8 0 -14 3 -14 15 -4 18 15 20 51 4 67
-8 8 -8 13 0 17 8 5 11 183 11 597 l0 589 -211 0 -211 0 2 -37 c1 -21 2 -44 1
-50 -1 -18 -21 -16 -21 2 0 8 -3 14 -8 13 -16 -5 -72 22 -72 34 0 23 -52 38
-136 38 -56 0 -84 -4 -88 -12 -5 -10 -7 -10 -12 0 -4 8 -33 12 -95 12 -84 0
-90 -2 -99 -22 l-9 -23 -7 23 c-6 22 -44 32 -44 12 0 -5 7 -10 15 -10 8 0 15
-7 15 -15 0 -8 4 -15 9 -15 18 0 20 -32 5 -62 -9 -17 -12 -37 -8 -46 16 -36
10 -64 -14 -73 -21 -8 -24 -14 -19 -42 5 -34 -16 -80 -26 -55 -8 18 -27 -10
-27 -39 0 -13 -9 -28 -20 -35 -11 -7 -20 -18 -20 -24 0 -15 25 -25 44 -18 14
5 52 -43 41 -54 -3 -4 -10 0 -15 8 -8 13 -10 12 -10 -2 0 -22 -16 -24 -24 -3
-3 8 -12 15 -21 15 -8 0 -15 7 -15 15 0 8 -5 15 -10 15 -13 0 2 -31 25 -50 14
-11 14 -15 0 -36 -8 -13 -15 -32 -15 -43 0 -10 -7 -22 -15 -25 -11 -4 -17 3
-22 24 -5 28 -23 43 -23 20 0 -13 -21 -13 -40 0 -13 9 -11 13 10 30 21 16 22
20 7 20 -14 0 -16 4 -7 19 13 25 13 34 -1 26 -5 -4 -23 -2 -39 5 -36 15 -54
59 -39 98 19 46 20 119 4 126 -9 3 -15 18 -15 35 0 31 14 49 25 31 13 -21 25
-9 25 25 0 19 4 35 10 35 5 0 9 10 7 23 -2 17 3 22 21 20 15 -2 22 3 22 15 0
36 -16 44 -101 49 l-84 6 -1 -29 c-8 -168 -9 -179 -32 -212 -21 -28 -22 -37
-13 -64 16 -46 14 -98 -4 -98 -8 0 -15 9 -15 20 0 21 -15 27 -25 10 -7 -12 12
-51 33 -66 9 -6 13 -17 10 -25 -2 -8 4 -22 14 -31 17 -17 18 -17 19 0 0 13 3
12 12 -6 9 -19 16 -23 39 -18 28 5 28 5 28 -42 0 -26 3 -57 6 -69 5 -19 2 -23
-17 -23 -45 0 -70 -12 -64 -28 3 -8 1 -18 -5 -22 -21 -13 -28 -74 -14 -120 12
-41 12 -46 -8 -67 -17 -19 -19 -25 -8 -38 10 -12 10 -15 -5 -15 -14 0 -16 -6
-10 -42 4 -24 15 -52 24 -63 17 -20 18 -55 1 -55 -14 0 -22 -58 -11 -79 6 -10
24 -33 41 -49 29 -30 37 -63 30 -127 -1 -11 2 -16 7 -12 4 5 8 25 8 45 0 21 5
37 14 40 11 4 13 -3 7 -28 -3 -18 -2 -38 3 -44 17 -20 21 -109 7 -166 -12 -51
-14 -53 -24 -33 -8 14 -9 24 -2 28 14 8 13 35 -1 35 -6 0 -9 -7 -5 -15 3 -9 0
-15 -9 -15 -8 0 -18 -8 -24 -17 -8 -14 -12 -15 -25 -4 -14 12 -16 10 -16 -12
0 -13 7 -38 15 -53 19 -37 19 -55 -2 -120 -15 -49 -15 -55 -1 -71 20 -22 6
-75 -14 -55 -22 22 -25 13 -24 -70 1 -68 -2 -83 -14 -83 -8 0 -20 -7 -27 -15
-7 -8 -13 -11 -13 -6 0 5 7 17 16 27 12 14 14 25 8 46 -8 27 -9 37 -13 92 l-1
24 -25 -27 c-28 -30 -34 -76 -10 -76 8 0 15 -9 15 -20 0 -11 -7 -20 -15 -20
-19 0 -19 -14 -1 -30 14 -11 16 -66 3 -87 -3 -5 -4 -29 -2 -54 2 -32 -2 -50
-15 -64 -10 -11 -20 -36 -23 -55 -8 -58 -32 -131 -42 -133 -6 -1 -11 12 -13
30 -2 23 -7 30 -18 26 -7 -3 -16 1 -18 8 -2 8 -11 36 -19 62 -13 44 -13 48 2
45 9 -1 22 1 29 5 8 6 12 2 12 -12 0 -12 5 -21 10 -21 14 0 30 44 30 81 0 17
6 32 15 35 28 11 17 34 -17 35 -18 1 -25 3 -15 6 9 2 15 9 12 14 -4 5 -2 9 4
9 11 0 9 39 -4 60 -5 9 -4 15 3 18 7 2 12 15 12 29 0 40 -19 25 -57 -46 -3 -6
-63 24 -63 31 0 11 18 10 25 -2 13 -21 30 -9 30 20 0 29 -17 41 -30 20 -10
-16 -35 -12 -43 8 -4 9 -14 17 -22 17 -20 0 -43 71 -37 115 3 19 3 29 0 23 -2
-7 -9 -13 -14 -13 -4 0 -7 6 -4 13 2 6 6 31 9 54 6 47 -8 65 -28 37 -15 -20
-51 -12 -43 10 7 18 -9 32 -45 41 -24 6 -27 11 -21 32 6 25 5 26 -31 19 -23
-4 -36 -3 -36 4 0 5 7 10 15 10 17 0 20 26 5 35 -8 5 -8 11 0 20 7 9 6 16 -5
25 -8 7 -13 16 -10 20 3 4 -4 10 -14 13 -13 3 -22 17 -27 43 -3 22 -12 46 -19
54 -7 8 -13 37 -13 63 0 57 -8 69 -27 43 -16 -21 -35 -14 -35 13 0 10 -7 24
-15 31 -8 7 -15 18 -15 26 0 7 -9 18 -20 24 -15 8 -19 17 -14 35 5 20 2 25
-12 25 -16 0 -15 2 4 23 29 31 28 51 -3 65 -35 16 -37 15 -30 -8 4 -11 2 -20
-4 -20 -6 0 -11 7 -11 15 0 8 -9 19 -20 25 -13 7 -20 21 -20 40 0 16 -4 32
-10 35 -13 8 -13 45 0 45 5 0 14 9 20 20 8 15 8 20 -1 18 -16 -4 -23 26 -14
59 4 19 11 24 25 20 21 -6 33 6 37 38 2 11 7 29 12 40 5 11 12 27 14 35 4 9 6
7 6 -7 1 -12 6 -25 11 -28 6 -3 8 -16 5 -28 -6 -27 -16 -87 -18 -107 -1 -8 3
-16 8 -17 6 -2 10 7 10 20 0 12 5 27 10 33 14 14 55 24 55 13 0 -5 5 -9 10 -9
6 0 9 25 7 63 -2 40 2 67 10 75 16 17 17 79 1 84 -10 4 -10 13 -1 42 9 28 9
43 1 56 -9 14 -7 24 10 48 12 16 22 37 22 46 0 23 27 20 35 -4 5 -15 12 -19
29 -14 17 4 25 -1 34 -20 6 -14 24 -32 41 -40 16 -9 38 -28 49 -43 11 -15 23
-25 27 -22 8 8 -16 62 -32 72 -7 4 -13 19 -13 32 0 37 -10 55 -32 55 -12 0
-35 15 -52 33 -17 18 -48 43 -68 56 -21 12 -38 26 -38 31 0 4 -14 10 -30 14
-20 4 -37 16 -48 36 -13 23 -22 29 -38 25 -13 -3 -27 2 -34 10 -10 12 -9 15 4
15 9 0 16 8 16 20 0 21 -16 25 -57 14 -13 -4 -20 -11 -16 -20 3 -9 -1 -14 -12
-14 -10 0 -23 -7 -30 -17 -14 -19 -45 -11 -45 12 0 8 15 22 33 31 35 17 36 20
21 92 l-4 22 -690 0 c-468 0 -690 -3 -690 -10 0 -6 -15 -20 -34 -31 -19 -11
-36 -28 -39 -38 -3 -11 -18 -22 -37 -26 -18 -4 -41 -16 -52 -27 -13 -13 -27
-18 -43 -14 -14 4 -25 1 -27 -6 -3 -8 -11 -7 -28 5 -15 10 -44 17 -72 17 -49
0 -57 7 -35 29 10 10 5 18 -21 42 -42 38 -58 33 -54 -16 3 -28 1 -36 -10 -31
-7 3 -21 9 -30 12 -10 4 -18 12 -18 19 0 17 38 59 56 61 39 6 22 14 -29 14
-43 0 -57 -4 -57 -14 0 -8 -4 -17 -8 -20 -15 -9 -52 6 -52 20 0 10 -14 14 -50
14 -37 0 -50 -4 -50 -15 0 -17 -32 -36 -46 -27 -6 4 -13 15 -17 24 -5 15 -26
17 -168 17 -90 1 -160 -2 -156 -5 4 -4 2 -13 -3 -20 -8 -8 -7 -11 2 -10 7 0
15 -3 18 -9 3 -6 -52 -11 -154 -13 -88 -1 -165 -7 -171 -12 -6 -5 -47 -15 -90
-21 -73 -11 -82 -15 -144 -67 -88 -74 -120 -105 -121 -117 -3 -44 -220 -193
-292 -200 -35 -4 -45 -15 -57 -58 -7 -25 -30 -64 -51 -87 -35 -38 -39 -40 -49
-23 -11 17 -11 17 -26 -1 -12 -16 -20 -17 -47 -9 -22 6 -33 15 -32 26 1 10
-17 31 -42 48 -44 32 -63 61 -45 67 6 2 11 10 11 17 0 21 41 45 77 45 70 0
109 41 58 60 -17 7 -25 17 -25 34 0 15 -7 25 -20 29 -21 5 -18 39 4 36 22 -3
76 14 76 23 0 6 6 8 14 5 8 -3 16 2 19 14 6 21 -3 25 -20 8 -8 -8 -13 -3 -18
19 -3 17 -13 33 -21 36 -9 3 -12 10 -9 16 4 6 10 8 15 5 35 -22 66 71 34 106
-15 16 -15 19 -1 19 8 0 17 -5 19 -11 4 -12 58 27 58 42 0 5 -112 9 -274 9
l-273 0 -7 -31z m524 0 c0 -5 -4 -9 -10 -9 -5 0 -10 7 -10 16 0 8 5 12 10 9 6
-3 10 -10 10 -16z m4880 -19 c0 -5 -5 -10 -11 -10 -5 0 -7 5 -4 10 3 6 8 10
11 10 2 0 4 -4 4 -10z m-5129 -43 c-20 -20 -11 -36 24 -43 35 -6 44 -17 25
-29 -5 -3 -10 -25 -10 -48 0 -26 -8 -51 -20 -67 -11 -14 -20 -37 -20 -52 0
-31 -15 -45 -24 -23 -3 8 -12 15 -21 15 -8 0 -15 5 -15 10 0 6 -7 10 -15 10
-8 0 -15 5 -15 10 0 6 -7 10 -16 10 -14 0 -15 -7 -11 -37 4 -21 10 -39 14 -41
5 -1 15 -7 23 -12 12 -8 13 -12 2 -19 -11 -7 -11 -9 2 -14 21 -8 21 -37 0 -37
-9 0 -14 -6 -12 -12 3 -7 17 -13 32 -13 36 -1 46 -19 44 -77 -2 -39 -6 -48
-25 -53 -12 -3 -33 0 -47 6 -20 10 -28 9 -41 -5 -15 -14 -15 -17 -1 -22 9 -3
16 -16 16 -28 0 -29 18 -54 28 -40 4 6 17 16 30 23 16 8 21 18 17 30 -7 23 22
36 41 20 12 -10 12 -14 -2 -24 -20 -14 -15 -17 49 -36 26 -7 47 -17 47 -21 0
-12 -24 -22 -57 -24 -24 0 -33 4 -38 20 -6 19 -8 18 -14 -9 -4 -21 -2 -31 6
-33 7 -2 13 -8 13 -13 0 -6 -4 -7 -10 -4 -5 3 -10 -1 -10 -9 0 -18 -16 -21
-25 -5 -5 7 -13 5 -25 -6 -19 -17 -54 -10 -47 9 3 8 -6 12 -28 12 -18 -1 -31
-4 -29 -7 2 -4 -5 -14 -16 -24 -11 -10 -20 -27 -20 -38 0 -12 -10 -31 -22 -44
-17 -18 -18 -23 -6 -23 9 0 19 -7 22 -16 8 -20 8 -19 -21 -28 -18 -6 -25 -2
-35 19 -9 20 -9 28 0 33 14 9 2 27 -18 27 -9 0 -13 6 -11 15 9 29 2 82 -13 99
-15 17 -11 71 6 71 5 0 8 10 7 23 -5 60 0 77 26 77 23 0 30 10 26 34 -1 4 12
6 29 4 24 -4 30 -1 30 13 0 22 -16 34 -23 17 -3 -8 -6 -6 -6 5 -1 9 5 17 13
17 8 0 16 7 20 15 3 8 11 15 17 15 16 0 38 31 39 52 0 11 -11 20 -32 26 -41
10 -47 40 -20 95 25 51 17 128 -15 142 -13 5 -23 13 -23 17 0 11 27 10 71 -4
35 -10 42 -9 62 10 13 12 31 22 41 22 15 0 16 3 7 14 -9 11 -9 15 1 19 21 7
41 -4 29 -16z m1839 -52 c0 -14 5 -25 12 -25 9 0 9 -3 1 -11 -6 -6 -23 -9 -39
-7 -23 2 -29 8 -29 28 0 15 5 24 13 23 6 -2 12 2 12 7 0 6 7 10 15 10 9 0 15
-9 15 -25z m3290 15 c0 -5 -4 -10 -10 -10 -5 0 -10 5 -10 10 0 6 5 10 10 10 6
0 10 -4 10 -10z m515 -42 c4 -16 3 -28 -1 -28 -5 0 -15 -14 -23 -30 -7 -17
-18 -29 -25 -27 -17 5 -19 53 -3 69 8 8 18 24 22 37 8 27 21 18 30 -21z
m-5532 12 c3 -11 1 -23 -4 -26 -5 -3 -9 -1 -9 5 0 5 -3 16 -6 25 -3 9 -2 16 4
16 5 0 12 -9 15 -20z m-1283 -120 c0 -5 -2 -10 -4 -10 -3 0 -8 5 -11 10 -3 6
-1 10 4 10 6 0 11 -4 11 -10z m6784 -47 c-3 -27 -8 -51 -11 -55 -11 -19 -21
-4 -25 35 -3 30 0 45 11 54 27 21 32 14 25 -34z m-1668 -4 c3 -6 6 -50 6 -98
0 -129 1 -123 -24 -119 -17 2 -26 14 -37 48 -7 25 -19 59 -26 75 -7 17 -13 47
-13 68 0 33 3 37 19 32 12 -4 21 -1 25 9 5 12 11 13 24 6 11 -6 22 -15 26 -21z
m1157 -52 l29 -22 -21 -19 c-25 -23 -36 -15 -46 32 -8 38 0 40 38 9z m-6265 4
c11 -7 11 -9 -2 -14 -9 -4 -15 -18 -15 -34 1 -42 -6 -75 -21 -100 -12 -18 -12
-26 0 -47 15 -29 5 -49 -13 -25 -7 8 -21 19 -32 23 -19 7 -19 8 -2 20 9 7 17
22 17 33 0 11 9 32 21 47 11 14 16 26 11 26 -6 0 -12 -6 -15 -12 -8 -22 -19 0
-24 47 l-6 45 34 0 c19 0 40 -4 47 -9z m6770 -80 c-14 -22 -52 -30 -46 -8 5
12 49 39 56 32 2 -1 -3 -12 -10 -24z m-574 -72 c-3 -5 -10 -7 -15 -3 -5 3 -7
10 -3 15 3 5 10 7 15 3 5 -3 7 -10 3 -15z m530 -32 c5 -27 4 -37 -3 -32 -6 3
-11 22 -11 42 0 44 5 41 14 -10z m19 18 c-7 -21 -13 -19 -13 6 0 11 4 18 10
14 5 -3 7 -12 3 -20z m47 -45 c0 -5 -2 -10 -4 -10 -3 0 -8 5 -11 10 -3 6 -1
10 4 10 6 0 11 -4 11 -10z m-654 -35 c-4 -14 -11 -25 -16 -25 -13 0 -13 16 1
42 14 26 23 16 15 -17z m555 -14 c-6 -11 -11 -28 -11 -38 0 -10 -12 -31 -26
-47 -24 -27 -27 -28 -42 -12 -16 15 -15 17 5 22 12 3 24 17 27 30 4 13 10 24
15 24 5 0 15 17 22 38 8 23 14 31 17 20 2 -9 -2 -26 -7 -37z m-6741 -53 c0
-34 -39 -93 -52 -80 -13 13 7 70 32 89 20 16 20 16 20 -9z m6095 -28 c3 -5 1
-10 -4 -10 -6 0 -11 5 -11 10 0 6 2 10 4 10 3 0 8 -4 11 -10z m272 -12 c-3 -8
-6 -5 -6 6 -1 11 2 17 5 13 3 -3 4 -12 1 -19z m-399 -20 c-4 -40 -25 -48 -38
-13 -12 32 -6 45 21 45 17 0 20 -6 17 -32z m370 -4 c15 -10 22 -24 20 -37 -3
-24 -19 -27 -29 -5 -3 7 -11 23 -18 36 -13 26 -4 28 27 6z m322 -24 c0 -11 -7
-20 -15 -20 -18 0 -19 6 -2 25 16 19 17 18 17 -5z m-476 -6 c11 -28 7 -42 -14
-47 -16 -4 -20 0 -20 22 0 41 22 57 34 25z m-54 -9 c0 -8 -4 -15 -10 -15 -5 0
-10 7 -10 15 0 8 5 15 10 15 6 0 10 -7 10 -15z m837 -7 c-3 -8 -6 -5 -6 6 -1
11 2 17 5 13 3 -3 4 -12 1 -19z m-653 -55 c-3 -32 -9 -62 -14 -67 -6 -6 -8 9
-6 40 3 27 5 57 5 67 1 9 5 17 10 17 5 0 7 -26 5 -57z m-86 29 c2 -7 -2 -10
-12 -6 -9 3 -16 11 -16 16 0 13 23 5 28 -10z m-5080 -14 c4 -22 -38 -35 -52
-16 -6 8 -17 13 -23 11 -14 -5 -18 9 -6 21 14 14 78 2 81 -16z m4792 0 c0 -16
-3 -19 -11 -11 -6 6 -8 16 -5 22 11 17 16 13 16 -11z m-5983 -10 c-3 -8 -6 -5
-6 6 -1 11 2 17 5 13 3 -3 4 -12 1 -19z m6173 7 c0 -8 -9 -19 -20 -25 -17 -9
-20 -8 -20 8 0 10 3 22 7 25 12 12 33 7 33 -8z m671 -8 c-13 -13 -26 -3 -16
12 3 6 11 8 17 5 6 -4 6 -10 -1 -17z m145 4 c-3 -5 1 -14 9 -21 16 -13 19 -40
9 -76 -4 -16 -11 -19 -35 -16 l-30 4 26 34 c21 27 24 38 15 53 -13 25 -13 31
1 31 5 0 8 -4 5 -9z m-6958 -124 c5 -17 1 -37 -8 -37 -5 0 -10 6 -10 14 0 9
-7 12 -20 9 -21 -6 -29 12 -8 19 17 6 43 3 46 -5z m892 -50 c0 -7 -9 -13 -20
-13 -22 0 -27 12 -7 19 21 9 27 8 27 -6z m-1048 -32 c0 -5 -5 -11 -11 -13 -6
-2 -11 4 -11 13 0 9 5 15 11 13 6 -2 11 -8 11 -13z m6453 -14 c3 -5 1 -12 -5
-16 -5 -3 -10 1 -10 9 0 18 6 21 15 7z m-5555 -26 c0 -8 -4 -15 -10 -15 -5 0
-10 7 -10 15 0 8 5 15 10 15 6 0 10 -7 10 -15z m5370 -5 c0 -5 -4 -10 -10 -10
-5 0 -10 5 -10 10 0 6 5 10 10 10 6 0 10 -4 10 -10z m10 -84 c0 -14 -5 -28
-11 -31 -6 -4 -8 -14 -5 -22 3 -8 0 -21 -8 -28 -7 -8 -11 -25 -9 -39 5 -22 2
-26 -20 -26 -26 0 -26 0 -10 28 22 38 12 59 -36 73 -42 13 -56 39 -21 39 11 0
20 5 20 11 0 6 9 9 19 6 10 -2 25 -1 32 4 27 17 49 10 49 -15z m-5392 -18 c-2
-12 -8 -23 -14 -25 -15 -5 -25 35 -10 41 22 9 27 6 24 -16z m-822 -171 c11
-76 11 -90 -5 -109 -27 -34 -41 -3 -41 92 0 47 3 90 7 94 13 12 30 -22 39 -77z
m7254 79 c0 -3 -4 -8 -10 -11 -5 -3 -10 -1 -10 4 0 6 5 11 10 11 6 0 10 -2 10
-4z m-1020 -31 c0 -8 -7 -15 -15 -15 -16 0 -20 12 -8 23 11 12 23 8 23 -8z
m-6140 -73 c0 -5 -6 -16 -13 -27 -10 -13 -16 -15 -21 -6 -4 6 -2 18 4 26 13
16 30 20 30 7z m6068 -54 c-2 -25 -8 -33 -23 -33 -24 0 -34 43 -13 56 27 18
39 10 36 -23z m-11 -64 c-3 -3 -12 -4 -19 -1 -8 3 -5 6 6 6 11 1 17 -2 13 -5z
m1113 -29 c7 -9 10 -18 7 -21 -10 -11 -37 5 -37 21 0 19 14 19 30 0z m-1010
-90 c0 -8 -2 -15 -4 -15 -2 0 -6 7 -10 15 -3 8 -1 15 4 15 6 0 10 -7 10 -15z
m-140 -11 c0 -8 -4 -12 -10 -9 -5 3 -10 10 -10 16 0 5 5 9 10 9 6 0 10 -7 10
-16z m105 -2 c0 -18 -20 -15 -23 4 -3 10 1 15 10 12 7 -3 13 -10 13 -16z
m1007 -44 c-7 -7 -12 -20 -12 -30 0 -10 -4 -18 -10 -18 -13 0 -13 23 2 55 8
17 15 22 22 15 7 -7 6 -14 -2 -22z m-1132 -28 c0 -21 -15 -27 -25 -10 -7 12 2
30 16 30 5 0 9 -9 9 -20z m180 6 c0 -3 -4 -8 -10 -11 -5 -3 -10 -1 -10 4 0 6
5 11 10 11 6 0 10 -2 10 -4z m998 -38 c37 -37 -19 -78 -58 -43 -19 17 -19 19
-4 37 20 21 45 23 62 6z m-978 -68 c0 -5 -2 -10 -4 -10 -3 0 -8 5 -11 10 -3 6
-1 10 4 10 6 0 11 -4 11 -10z m-36 -46 c23 -9 20 -24 -4 -24 -11 0 -20 7 -20
15 0 17 2 18 24 9z m1056 -19 c0 -18 -26 -37 -47 -33 -27 5 -28 37 -1 47 27
10 48 4 48 -14z m-1100 -45 c0 -5 -2 -10 -4 -10 -3 0 -8 5 -11 10 -3 6 -1 10
4 10 6 0 11 -4 11 -10z m110 -5 c-7 -8 -16 -15 -21 -15 -5 0 -9 7 -9 15 0 9 9
15 21 15 18 0 19 -2 9 -15z m-285 -26 c-4 -5 -13 -9 -22 -9 -13 0 -13 3 -3 15
13 15 35 11 25 -6z m363 -41 c3 -21 0 -26 -15 -22 -16 4 -19 -1 -21 -33 -2
-21 -7 -39 -12 -41 -17 -6 -11 -19 12 -25 12 -4 19 -9 16 -12 -3 -4 -16 -1
-28 5 -18 10 -21 18 -17 46 4 24 1 36 -10 42 -14 8 -14 12 1 38 10 20 15 24
16 12 0 -10 7 -18 16 -18 11 0 14 6 9 21 -6 17 -3 20 12 17 11 -2 19 -13 21
-30z m-488 -48 c0 -5 -4 -10 -10 -10 -5 0 -10 5 -10 10 0 6 5 10 10 10 6 0 10
-4 10 -10z m-2372 -42 c17 -17 15 -28 -6 -28 -24 0 -32 8 -25 26 6 17 15 18
31 2z m-228 -13 c0 -8 -5 -15 -11 -15 -8 0 -7 -6 2 -17 12 -15 12 -16 -3 -10
-10 3 -18 2 -18 -3 0 -6 -7 -10 -15 -10 -8 0 -15 5 -15 10 0 6 7 13 15 16 8 4
15 15 15 25 0 10 7 19 15 19 8 0 15 -7 15 -15z m-90 -15 c0 -5 -2 -10 -4 -10
-3 0 -8 5 -11 10 -3 6 -1 10 4 10 6 0 11 -4 11 -10z m2750 -16 c0 -8 -4 -12
-10 -9 -5 3 -10 10 -10 16 0 5 5 9 10 9 6 0 10 -7 10 -16z m445 -4 c3 -5 1
-10 -4 -10 -6 0 -11 5 -11 10 0 6 2 10 4 10 3 0 8 -4 11 -10z m-655 -16 c0 -8
-4 -12 -10 -9 -5 3 -10 10 -10 16 0 5 5 9 10 9 6 0 10 -7 10 -16z m-2286 -9
c3 -9 0 -15 -9 -15 -9 0 -12 6 -9 15 4 8 7 15 9 15 2 0 5 -7 9 -15z m-129 -9
c11 -4 28 -12 37 -17 10 -5 28 -10 40 -10 17 -1 19 -2 6 -6 -40 -10 -15 -34
42 -40 30 -4 37 -1 37 14 0 10 -4 24 -10 31 -6 8 -6 12 1 12 6 0 15 -7 20 -16
7 -13 13 -13 35 -3 15 7 27 18 27 26 0 7 4 13 9 13 17 0 7 -40 -11 -46 -10 -3
-18 -10 -18 -15 0 -6 5 -7 12 -3 7 4 8 3 4 -5 -6 -9 -11 -9 -24 1 -14 11 -15
10 -9 -5 4 -10 7 -29 7 -43 0 -28 26 -23 35 7 4 10 11 19 17 19 10 0 8 -18 -7
-67 -7 -21 -5 -21 19 -10 14 7 26 18 26 25 0 7 -4 10 -10 7 -5 -3 -10 1 -10 9
0 29 30 18 31 -11 1 -27 1 -27 10 5 6 18 16 32 25 32 11 0 14 -6 8 -22 -6 -22
-6 -22 16 2 15 17 20 20 16 8 -3 -10 -3 -25 1 -34 5 -13 9 -12 28 6 13 12 26
17 29 12 3 -5 -1 -15 -9 -22 -24 -20 -17 -30 18 -24 17 4 38 15 46 25 16 23
36 25 27 4 -3 -8 -2 -14 2 -14 21 4 42 -2 42 -12 0 -5 -4 -8 -9 -5 -5 3 -12
-6 -16 -21 -3 -15 -13 -32 -22 -38 -17 -13 -10 -35 11 -35 21 0 66 -58 59 -76
-4 -11 -2 -15 7 -12 23 7 52 69 48 100 -3 15 0 29 6 32 7 2 4 9 -6 17 -20 17
-28 61 -10 66 8 3 12 -5 12 -23 0 -22 3 -25 12 -16 17 17 30 15 26 -5 -1 -10
1 -23 5 -29 4 -7 0 -17 -8 -24 -8 -7 -15 -20 -15 -29 1 -12 5 -10 21 8 11 13
18 30 15 38 -7 17 11 17 17 1 4 -10 7 -10 15 0 14 21 38 4 48 -36 5 -20 15
-37 22 -37 14 0 17 -19 2 -21 -5 -1 -13 -2 -17 -3 -4 0 5 -11 19 -22 15 -12
24 -28 21 -35 -6 -17 -33 -18 -33 -1 0 19 -48 37 -73 27 l-22 -9 23 0 c26 -1
30 -21 5 -22 -10 0 -13 -3 -7 -5 7 -3 10 -14 7 -25 -5 -16 -13 -20 -40 -17
-19 1 -37 -2 -41 -7 -9 -13 -102 -18 -102 -5 0 6 -5 10 -12 10 -6 0 -1 -11 11
-24 l23 -25 -28 8 c-19 5 -31 15 -34 32 -3 13 -11 25 -19 27 -21 4 -39 -17
-34 -38 6 -22 0 -25 -27 -10 -15 8 -20 6 -25 -10 -3 -11 -15 -20 -25 -20 -20
0 -28 22 -22 58 4 18 7 20 19 11 21 -18 38 3 24 30 -13 24 -31 28 -31 7 0 -8
-14 -20 -30 -28 -22 -9 -30 -18 -26 -30 7 -28 -10 -30 -22 -3 -12 26 -27 32
-37 15 -3 -5 1 -10 10 -10 11 0 14 -6 9 -24 -4 -18 0 -32 16 -48 18 -19 19
-24 6 -26 -20 -4 -21 -18 -1 -26 8 -3 15 -12 15 -21 0 -8 5 -15 11 -15 6 0 9
7 5 15 -3 8 -1 15 5 15 9 0 30 -43 28 -58 -3 -20 2 -32 15 -32 7 0 17 -8 20
-17 3 -10 13 -29 22 -43 15 -24 15 -24 11 -3 -6 29 7 37 33 21 12 -8 18 -19
14 -30 -4 -13 0 -18 15 -18 24 0 25 -4 11 -31 -13 -23 -12 -23 34 -4 20 9 41
13 47 9 6 -3 13 3 16 15 7 27 33 28 33 1 0 -13 5 -18 15 -14 8 3 21 -1 30 -9
8 -8 23 -13 32 -11 10 3 29 -5 41 -16 13 -12 26 -19 30 -15 4 4 1 10 -5 12 -7
3 -13 14 -13 26 1 22 1 22 18 2 18 -22 72 -33 72 -16 0 15 22 9 41 -11 9 -10
24 -18 33 -18 15 0 15 -2 0 -25 -9 -14 -20 -23 -24 -20 -4 3 -10 -5 -13 -16
-5 -17 -12 -20 -31 -17 -16 3 -27 0 -31 -10 -4 -12 -8 -13 -17 -4 -16 16 -28
15 -28 -3 0 -8 -6 -15 -14 -15 -8 0 -22 -10 -30 -22 -13 -18 -16 -19 -16 -5 0
9 -4 17 -10 17 -5 0 -7 -13 -4 -29 4 -19 0 -38 -10 -52 -9 -13 -16 -33 -17
-44 0 -18 -1 -17 -10 4 -5 13 -8 35 -7 50 2 20 -2 27 -19 29 -25 4 -26 3 -23
-105 1 -50 -2 -63 -17 -71 -17 -10 -12 -27 8 -27 5 0 9 -3 9 -7 0 -5 0 -13 0
-19 0 -8 -4 -8 -14 0 -11 9 -14 2 -20 -36 -3 -27 -2 -51 4 -57 17 -17 12 -56
-7 -56 -14 0 -15 -2 -5 -9 20 -12 -42 -96 -85 -116 -20 -10 -32 -22 -30 -29 6
-16 -54 -86 -74 -86 -11 0 -12 -2 -1 -9 11 -7 11 -9 -2 -14 -9 -4 -16 -14 -16
-23 0 -10 -5 -14 -14 -11 -8 3 -16 1 -18 -5 -2 -6 -19 -16 -38 -22 -27 -9 -34
-17 -37 -41 -3 -33 15 -69 24 -47 7 17 33 15 33 -2 0 -30 -13 -46 -36 -46 -17
0 -27 -8 -34 -25 -14 -36 -49 -31 -63 8 -3 9 -13 17 -22 17 -19 0 -19 10 1 38
8 12 25 22 37 23 l22 0 -22 11 c-25 12 -29 23 -13 33 6 3 10 11 10 17 0 7 -29
8 -87 5 -84 -6 -88 -5 -111 20 -16 18 -18 24 -7 19 11 -4 15 -2 12 6 -2 8 -17
12 -33 10 -24 -2 -32 3 -48 33 -11 19 -25 35 -33 35 -16 0 -17 17 -1 22 7 3 8
10 4 17 -7 11 -10 11 -17 0 -8 -11 -11 -11 -20 4 -5 9 -21 17 -35 17 -21 0
-24 4 -19 20 5 15 2 20 -10 20 -16 0 -16 2 -1 25 9 13 16 31 16 39 0 8 6 17
13 19 7 3 -2 18 -25 41 -21 19 -38 44 -38 55 0 11 -4 22 -10 26 -5 3 -7 11 -5
18 6 18 -28 55 -58 62 -14 4 -28 13 -31 21 -4 10 -17 12 -51 7 -27 -3 -55 -1
-68 5 -12 6 -35 13 -52 14 -18 2 -30 9 -31 18 -2 29 -4 30 -36 14 -47 -24
-116 -25 -124 -2 -3 12 -15 18 -33 18 -24 0 -83 45 -70 52 33 20 50 26 65 22
15 -4 19 1 19 20 0 22 -5 26 -27 26 -21 0 -28 5 -28 20 0 25 48 70 68 62 12
-4 14 -1 9 12 -6 16 -3 17 27 12 34 -7 66 0 66 14 0 5 -8 6 -19 3 -10 -3 -22
0 -26 7 -12 19 1 22 44 10 32 -8 41 -16 42 -33 1 -17 2 -18 6 -4 2 9 9 17 14
17 5 0 9 10 9 23 1 22 1 22 16 2 13 -17 16 -18 24 -5 5 8 10 18 10 23 0 4 9 7
20 7 13 0 20 7 20 20 0 11 -7 20 -15 20 -15 0 -20 12 -9 23 10 9 44 -16 44
-32 0 -11 3 -12 11 -4 9 9 8 18 -5 38 -15 23 -15 28 -1 55 18 35 19 48 3 32
-18 -18 -31 -15 -24 5 6 16 6 16 -12 0 -10 -9 -24 -17 -31 -17 -14 0 -32 45
-25 63 4 10 -7 13 -41 13 -39 -1 -45 2 -41 16 5 21 -9 34 -19 18 -5 -7 -12 -5
-21 7 -13 17 -15 17 -25 1 -15 -26 -26 -22 -32 10 -6 30 10 45 53 51 6 0 10 8
10 16 0 18 17 20 22 4 3 -8 10 -8 26 2 28 17 27 19 -9 47 -18 15 -27 18 -23 9
7 -20 -14 -31 -31 -17 -8 7 -15 9 -16 4 0 -5 -8 11 -17 36 -11 29 -25 46 -37
48 -20 4 -20 4 0 -12 20 -16 20 -16 1 -31 -14 -11 -23 -12 -33 -4 -14 12 -17
6 -13 -25 2 -17 -1 -17 -28 5 -29 24 -32 49 -6 49 8 0 14 4 14 10 0 5 -6 7
-14 4 -8 -3 -17 0 -21 5 -3 6 -11 9 -16 5 -5 -3 -7 -10 -4 -15 4 -5 2 -9 -3
-9 -5 0 -12 11 -14 25 -6 28 -5 29 40 16 17 -5 32 -6 32 -1 0 4 -9 10 -21 13
-15 4 -20 12 -17 33 4 33 28 50 54 39 11 -5 31 -9 46 -10 24 -2 26 0 17 22 -7
20 -5 25 16 33 14 5 25 16 25 24 0 27 33 28 53 1 20 -27 37 -25 37 6 0 21 20
25 37 8 5 -5 22 -7 36 -3 23 5 26 10 21 31 -6 23 -5 24 14 14 26 -14 54 -14
30 0 -10 5 -18 14 -18 19 0 14 44 12 57 -1 6 -6 17 -9 23 -7 9 3 8 8 -3 20 -9
8 -13 18 -10 22 14 13 41 5 59 -19 23 -31 64 -34 71 -4 5 17 11 19 42 15 20
-3 54 -1 76 3 22 5 32 9 23 10 -11 1 -16 9 -16 29 1 26 3 27 57 27 31 -1 65
-4 76 -9z m-385 -12 c0 -3 -7 -12 -15 -21 -20 -19 -32 -10 -14 11 14 15 29 21
29 10z m-120 -25 c0 -6 -4 -7 -10 -4 -5 3 -10 11 -10 16 0 6 5 7 10 4 6 -3 10
-11 10 -16z m3520 -4 c0 -8 -2 -15 -4 -15 -2 0 -6 7 -10 15 -3 8 -1 15 4 15 6
0 10 -7 10 -15z m-2711 -49 c-28 -13 -36 1 -13 23 17 16 20 16 25 2 4 -10 0
-19 -12 -25z m66 14 c-6 -9 -9 -9 -16 1 -10 17 0 34 13 21 6 -6 7 -16 3 -22z
m115 26 c0 -3 -4 -8 -10 -11 -5 -3 -10 -1 -10 4 0 6 5 11 10 11 6 0 10 -2 10
-4z m3210 -16 c0 -11 -4 -20 -10 -20 -5 0 -10 9 -10 20 0 11 5 20 10 20 6 0
10 -9 10 -20z m-650 -11 c0 -5 -4 -9 -10 -9 -5 0 -10 7 -10 16 0 8 5 12 10 9
6 -3 10 -10 10 -16z m-3640 7 c0 -3 -4 -8 -10 -11 -5 -3 -10 -1 -10 4 0 6 5
11 10 11 6 0 10 -2 10 -4z m4474 -18 c8 -33 7 -40 -4 -33 -6 4 -8 10 -5 15 3
5 1 11 -5 15 -12 8 -13 25 -1 25 5 0 11 -10 15 -22z m-1164 -4 c0 -17 -22 -14
-28 4 -2 7 3 12 12 12 9 0 16 -7 16 -16z m-3406 -19 c3 -8 2 -15 -3 -15 -5 0
-14 7 -21 15 -10 12 -10 15 3 15 8 0 17 -7 21 -15z m31 -15 c3 -5 1 -10 -4
-10 -6 0 -11 5 -11 10 0 6 2 10 4 10 3 0 8 -4 11 -10z m3285 -15 c0 -8 5 -15
10 -15 6 0 10 -7 10 -15 0 -19 -11 -19 -35 -1 -11 8 -16 19 -12 30 8 20 27 21
27 1z m-3340 -20 c0 -8 -4 -15 -10 -15 -5 0 -10 7 -10 15 0 8 5 15 10 15 6 0
10 -7 10 -15z m-2880 -55 c0 -5 -4 -10 -10 -10 -5 0 -10 5 -10 10 0 6 5 10 10
10 6 0 10 -4 10 -10z m411 -21 c6 -12 8 -34 5 -50 -4 -22 -2 -29 9 -29 8 0 15
-9 15 -20 0 -13 -7 -20 -19 -20 -10 0 -21 -7 -25 -15 -3 -8 -1 -15 4 -15 6 0
10 -7 10 -16 0 -10 -6 -14 -15 -10 -10 3 -15 -1 -15 -12 0 -9 -3 -51 -6 -92
-3 -41 -7 -93 -8 -115 -1 -22 -7 -51 -13 -65 -5 -14 -11 -43 -11 -64 -2 -39
-16 -66 -28 -53 -14 14 -17 146 -3 163 10 13 10 17 -1 24 -11 7 -12 14 -2 35
7 14 12 40 12 58 0 18 9 43 20 57 20 26 27 80 10 80 -13 0 -37 48 -45 93 -7
35 5 51 20 27 8 -14 45 11 45 31 0 34 24 39 41 8z m179 11 c0 -5 -7 -7 -15 -4
-8 4 -15 8 -15 10 0 2 7 4 15 4 8 0 15 -4 15 -10z m6590 -2 c0 -6 6 -19 14
-27 19 -23 28 -101 11 -101 -7 0 -15 3 -17 8 -1 4 -16 18 -33 31 -16 13 -22
21 -13 18 9 -3 19 0 22 9 3 8 1 14 -4 14 -6 0 -10 14 -10 30 0 20 5 30 15 30
8 0 15 -5 15 -12z m-7172 -14 c16 -5 22 -14 22 -35 0 -36 -10 -36 -49 -3 -43
35 -30 53 27 38z m6418 -29 c7 -27 33 -40 48 -25 7 7 6 10 -2 10 -7 0 -12 9
-12 20 0 23 10 25 32 8 23 -19 27 -40 11 -70 -7 -16 -10 -29 -6 -29 5 -1 14
-2 22 -3 8 0 19 -9 25 -18 8 -14 7 -21 -6 -34 -15 -15 -18 -14 -38 6 l-22 22
2 -24 c4 -39 1 -48 -15 -48 -10 0 -15 10 -15 30 0 17 5 30 12 30 6 0 2 10 -11
21 -14 13 -21 29 -18 41 4 14 -1 22 -19 28 -14 6 -24 18 -24 30 0 11 -4 20
-10 20 -5 0 -10 4 -10 9 0 19 50 -2 56 -24z m-6283 10 c-4 -15 -36 -12 -41 3
-3 9 3 13 19 10 13 -1 23 -7 22 -13z m502 -39 c-14 -10 -15 -17 -6 -34 15 -28
14 -75 -1 -91 -10 -11 -10 -14 0 -18 14 -5 17 -43 2 -43 -5 0 -14 8 -19 18 -9
14 -10 13 -11 -11 0 -16 4 -26 9 -23 5 4 7 -3 4 -13 -3 -11 -12 -22 -22 -24
-10 -3 -8 -5 8 -6 20 -1 22 -5 17 -26 -4 -14 -2 -25 4 -25 6 0 9 -21 9 -47 -2
-65 7 -111 26 -129 19 -19 19 -33 0 -40 -8 -4 -14 -19 -14 -37 0 -38 -7 -86
-14 -107 -3 -8 -11 -33 -18 -55 -13 -44 -55 -100 -63 -86 -3 5 -7 35 -8 67 -1
46 -6 63 -22 76 -17 14 -18 19 -7 32 7 9 11 25 8 36 -3 11 -1 23 4 26 6 3 7
14 4 25 -4 11 -2 19 5 19 10 0 4 44 -9 65 -4 6 -6 31 -5 58 1 26 -2 49 -6 52
-11 7 7 60 26 76 8 6 14 26 14 43 0 17 9 46 20 64 27 44 19 139 -14 152 -21 8
-21 8 -1 15 11 4 29 11 40 15 38 16 50 17 53 3 2 -8 -4 -20 -13 -27z m2105 34
c0 -5 -4 -10 -10 -10 -5 0 -10 5 -10 10 0 6 5 10 10 10 6 0 10 -4 10 -10z
m3584 -35 c3 -8 1 -15 -4 -15 -6 0 -10 7 -10 15 0 8 2 15 4 15 2 0 6 -7 10
-15z m-6210 -52 c-5 -18 -53 -39 -68 -30 -9 5 -45 -37 -39 -46 4 -6 0 -8 -10
-4 -8 3 -18 0 -20 -7 -6 -15 -64 -19 -72 -5 -3 5 1 6 10 3 13 -5 15 -2 9 20
-6 25 -4 27 19 21 27 -7 48 16 40 45 -4 13 -3 13 6 0 9 -12 14 -11 40 8 17 12
31 18 31 12 0 -16 30 -12 37 6 8 22 23 3 17 -23z m7176 2 c0 -7 -9 -15 -20
-18 -22 -6 -23 -3 -14 31 5 18 9 20 20 11 8 -6 14 -17 14 -24z m-4570 -37 c0
18 15 15 41 -9 13 -11 19 -18 13 -15 -7 3 -15 -5 -18 -19 -4 -16 -11 -22 -21
-19 -8 4 -15 1 -15 -5 0 -6 6 -11 13 -11 6 0 -1 -7 -17 -15 -39 -21 -48 -5
-31 52 8 25 9 43 3 43 -5 0 -6 5 -3 11 5 6 12 4 21 -8 8 -11 13 -13 14 -5z
m-70 -18 c0 -5 -4 -10 -10 -10 -5 0 -10 5 -10 10 0 6 5 10 10 10 6 0 10 -4 10
-10z m1735 0 c-3 -5 -10 -10 -16 -10 -5 0 -9 5 -9 10 0 6 7 10 16 10 8 0 12
-4 9 -10z m-3935 -55 c0 -8 -7 -15 -15 -15 -16 0 -20 12 -8 23 11 12 23 8 23
-8z m2330 5 c0 -5 -4 -10 -10 -10 -5 0 -10 5 -10 10 0 6 5 10 10 10 6 0 10 -4
10 -10z m-2924 -25 c3 -14 10 -22 15 -19 5 3 9 1 9 -5 0 -24 -20 -19 -35 8
-18 35 -18 41 -5 41 5 0 12 -11 16 -25z m4251 -25 c0 -33 -10 -29 -22 8 -4 15
-2 22 8 22 9 0 14 -11 14 -30z m2353 -1 c0 -5 -7 -9 -15 -9 -15 0 -20 12 -9
23 8 8 24 -1 24 -14z m-6465 -8 c3 -5 1 -12 -5 -16 -5 -3 -10 1 -10 9 0 18 6
21 15 7z m7375 -22 c0 -12 7 -27 17 -34 21 -16 11 -43 -23 -55 -14 -6 -28 -19
-31 -30 -6 -21 -53 -29 -53 -9 0 8 -4 8 -14 0 -11 -9 -15 -9 -18 1 -4 10 -9 8
-22 -5 -14 -14 -21 -15 -32 -6 -12 10 -20 7 -43 -15 -15 -14 -30 -23 -34 -19
-15 15 -5 40 23 56 17 10 30 22 30 28 0 5 8 9 18 9 9 0 23 9 30 20 7 12 17 18
22 15 5 -3 17 3 27 14 16 19 18 19 34 5 22 -20 39 -10 39 22 0 15 6 24 15 24
9 0 15 -9 15 -21z m-3396 -24 c-4 -8 -1 -22 6 -30 15 -18 9 -28 -11 -20 -18 7
-22 47 -6 57 17 11 17 10 11 -7z m146 -6 c0 -6 -4 -7 -10 -4 -5 3 -10 11 -10
16 0 6 5 7 10 4 6 -3 10 -11 10 -16z m-54 -53 c12 -49 -32 -66 -53 -21 -6 14
-7 23 -3 20 5 -3 15 1 22 9 19 22 27 19 34 -8z m2040 -71 c3 -14 10 -25 15
-25 14 0 10 -27 -5 -33 -20 -8 -56 21 -50 38 4 8 1 15 -5 15 -6 0 -11 7 -11
15 0 9 9 15 25 15 18 0 26 -7 31 -25z m72 -10 c-18 -19 -24 -21 -26 -9 -4 17
28 45 41 37 4 -2 -3 -15 -15 -28z m-1801 -7 c-3 -7 -5 -2 -5 12 0 14 2 19 5
13 2 -7 2 -19 0 -25z m-1300 -24 c-3 -3 -12 -4 -19 -1 -8 3 -5 6 6 6 11 1 17
-2 13 -5z m4141 -8 c7 -4 19 -2 27 4 8 7 15 9 15 5 0 -14 -34 -34 -58 -35 -31
0 -68 20 -54 29 14 9 54 7 70 -3z m-957 -21 c2 -23 4 -28 15 -50 6 -11 14 -32
18 -47 4 -19 13 -28 26 -28 20 0 36 -32 25 -50 -10 -16 -30 -6 -30 15 0 10
-15 26 -35 36 -19 11 -31 19 -26 19 5 0 -3 11 -18 25 -26 24 -26 24 -9 59 19
38 32 46 34 21z m53 -9 c33 -30 33 -46 1 -46 -14 0 -25 6 -25 13 0 6 -3 22 -6
35 -8 28 -1 28 30 -2z m-6233 4 c27 -15 24 -40 -6 -40 -13 0 -29 -6 -34 -12
-6 -7 -21 -26 -34 -42 -22 -28 -23 -28 -60 -13 -20 9 -37 20 -37 24 0 20 55
35 88 24 11 -4 17 2 17 17 0 10 9 18 22 20 14 2 20 8 16 18 -6 17 1 18 28 4z
m4419 -20 c0 -5 -5 -10 -11 -10 -5 0 -7 5 -4 10 3 6 8 10 11 10 2 0 4 -4 4
-10z m-4617 -82 c-6 -22 -35 -58 -48 -58 -14 0 -3 60 13 69 28 17 41 13 35
-11z m431 -42 c4 -29 4 -75 1 -102 -3 -27 -2 -82 3 -123 6 -53 5 -76 -3 -85
-7 -7 -16 -23 -20 -36 l-8 -25 -10 25 c-15 39 -9 310 8 336 8 12 11 31 8 43
-3 11 -1 21 5 21 5 0 13 -24 16 -54z m5911 31 c4 -17 34 -65 48 -75 12 -9 17
-25 15 -48 -2 -39 -13 -44 -24 -11 -3 12 -13 30 -22 40 -8 9 -12 20 -9 24 4 3
-1 12 -10 18 -24 18 -63 -9 -63 -41 0 -15 -6 -24 -15 -24 -24 0 -19 51 6 57
15 4 19 11 15 25 -8 34 4 50 33 43 14 -4 26 -7 26 -8z m338 -187 c3 -11 1 -18
-4 -14 -5 3 -9 12 -9 20 0 20 7 17 13 -6z m-272 -55 c1 -17 -18 -17 -25 0 -4
11 -1 15 10 13 8 -2 15 -7 15 -13z m-5763 -25 c27 -25 28 -39 5 -46 -37 -11
-46 -21 -48 -48 0 -15 3 -29 7 -32 14 -9 36 -64 27 -70 -12 -7 -12 -44 1 -44
6 0 11 5 11 10 1 6 2 15 3 22 0 6 14 15 30 19 31 9 56 -3 56 -27 0 -7 9 -19
20 -27 22 -16 39 -118 23 -139 -11 -15 -10 -84 1 -111 6 -12 3 -24 -8 -36 -20
-21 -20 -40 -1 -65 12 -16 12 -20 -1 -33 -8 -8 -12 -19 -9 -23 8 -13 -15 -98
-30 -110 -18 -15 -48 17 -42 42 7 26 -12 18 -37 -15 -15 -21 -19 -42 -19 -97
0 -38 5 -75 11 -82 18 -22 17 -73 -1 -101 -9 -14 -17 -35 -17 -46 0 -11 -4
-23 -10 -26 -15 -9 -12 -55 3 -55 10 0 13 -15 13 -50 -1 -27 -3 -50 -6 -51 -3
-1 -23 -3 -45 -5 -41 -3 -74 -33 -75 -66 0 -10 -6 -15 -12 -13 -7 3 -23 -13
-36 -35 -18 -32 -28 -40 -42 -35 -13 4 -22 -1 -30 -15 -7 -13 -7 -20 0 -20 5
0 10 -4 10 -10 0 -5 -7 -10 -15 -10 -8 0 -15 -7 -15 -15 0 -9 -10 -15 -22 -16
-17 -1 -19 -2 -5 -6 19 -5 22 -20 7 -43 -6 -9 -10 -11 -10 -3 0 7 -7 10 -15 7
-8 -4 -15 -12 -15 -20 0 -16 -37 -37 -50 -29 -6 4 5 33 26 71 28 50 35 72 30
95 -8 39 10 67 39 61 16 -3 27 2 34 17 13 24 9 26 -18 9 -15 -9 -26 -9 -44 -1
-20 10 -26 9 -31 -3 -3 -8 0 -14 6 -14 9 0 9 -3 1 -11 -13 -13 -36 -2 -27 13
4 6 -1 8 -15 3 -12 -4 -21 -2 -21 4 0 6 4 11 10 11 5 0 12 11 16 24 7 30 30
41 42 19 12 -20 57 -11 66 13 5 13 2 15 -14 11 -16 -4 -20 0 -20 19 0 29 -20
32 -27 4 -7 -25 -15 -25 -44 0 -23 19 -23 21 -6 34 13 10 17 21 12 36 -5 16
-2 23 14 27 24 6 28 38 6 47 -14 5 -14 9 0 36 8 16 17 30 19 30 3 0 12 3 21 6
13 6 16 1 14 -22 -4 -48 0 -64 15 -64 8 0 17 -15 20 -35 7 -35 28 -46 42 -23
13 20 16 128 4 128 -5 0 -10 16 -10 35 0 19 5 35 10 35 6 0 10 -7 10 -15 0 -8
5 -15 10 -15 6 0 10 7 10 15 0 8 7 15 15 15 9 0 15 9 15 21 0 14 5 19 18 17
25 -5 27 -52 3 -104 -22 -46 -27 -74 -12 -74 22 0 76 123 65 148 -4 10 -9 35
-10 57 -8 104 -11 119 -21 122 -6 2 -17 -5 -23 -16 -6 -11 -19 -25 -29 -30
-16 -9 -18 -5 -16 49 1 42 -2 61 -12 64 -8 3 -13 21 -13 47 0 33 -4 42 -20 46
-26 7 -21 27 8 31 13 2 22 11 22 21 0 10 7 24 15 31 16 14 21 50 6 50 -12 0
-1 74 11 78 4 2 8 10 8 17 0 8 9 17 20 20 17 5 20 14 18 48 -5 92 1 127 21
127 10 0 21 9 24 20 7 26 -9 35 -22 13 -6 -10 -11 -13 -11 -6 0 6 -3 19 -6 27
-4 11 7 28 32 51 30 28 38 42 38 70 0 40 13 44 44 15z m4358 -90 l34 -30 -32
6 c-30 5 -31 4 -15 -9 9 -8 27 -12 40 -10 20 4 23 0 24 -32 0 -21 -2 -34 -6
-29 -10 14 -49 34 -66 34 -8 0 -15 7 -15 15 0 19 -9 19 -48 -1 -27 -13 -30
-18 -22 -39 5 -13 5 -27 1 -30 -5 -3 -11 2 -15 10 -8 22 -25 18 -19 -5 6 -21
-2 -26 -55 -34 -23 -3 -35 0 -39 10 -8 20 30 54 60 54 19 0 26 7 32 33 5 17 7
42 6 55 -1 12 3 22 9 22 5 0 10 -9 10 -19 0 -11 3 -22 8 -24 12 -8 54 12 47
23 -8 12 2 30 17 30 6 0 26 -13 44 -30z m1149 -145 c0 -14 -3 -25 -6 -25 -11
0 -21 38 -14 51 10 15 18 3 20 -26z m442 13 c-3 -8 -6 -5 -6 6 -1 11 2 17 5
13 3 -3 4 -12 1 -19z m-1882 2 c3 -5 2 -10 -4 -10 -5 0 -13 5 -16 10 -3 6 -2
10 4 10 5 0 13 -4 16 -10z m1512 -6 c10 -26 -14 -41 -35 -21 -15 16 -15 19 -2
27 21 14 30 12 37 -6z m-1522 -24 c3 -5 -1 -10 -10 -10 -9 0 -13 5 -10 10 3 6
8 10 10 10 2 0 7 -4 10 -10z m55 -10 c12 -8 11 -10 -7 -10 -12 0 -25 5 -28 10
-8 13 15 13 35 0z m1424 -45 c6 -10 21 -30 34 -44 34 -37 57 -102 32 -86 -6 4
-18 1 -26 -6 -13 -10 -14 -7 -8 29 6 41 -7 60 -20 27 -3 -9 -12 -12 -21 -9 -9
4 -14 13 -11 20 3 8 1 14 -4 14 -5 0 -8 8 -8 18 0 9 0 22 -2 27 -10 38 15 45
34 10z m56 11 c0 -2 3 -11 6 -20 3 -9 1 -16 -5 -16 -6 0 -11 6 -11 14 0 8 -8
17 -17 19 -14 4 -12 5 5 6 12 0 22 -1 22 -3z m-3470 -31 c38 -3 58 -9 67 -21
12 -17 14 -17 29 4 18 26 27 27 48 7 18 -18 70 -40 61 -25 -8 13 8 13 21 0 5
-5 27 -11 49 -14 22 -3 41 -10 43 -16 2 -5 10 -10 17 -10 7 0 16 -6 18 -12 4
-10 8 -9 16 2 9 13 11 13 11 -2 0 -21 -15 -31 -54 -34 -17 -1 -49 -7 -71 -12
-72 -18 -195 -25 -210 -12 -17 15 -36 5 -28 -15 3 -8 0 -15 -6 -15 -6 0 -11 6
-11 14 0 8 -8 17 -17 20 -28 7 -123 3 -123 -6 0 -4 -9 -8 -21 -8 -13 0 -19 5
-15 13 3 6 9 20 12 30 4 9 14 17 23 17 12 0 11 4 -7 18 l-22 17 30 13 c30 14
39 35 19 48 -21 12 13 23 40 12 14 -5 51 -12 81 -13z m50 15 c0 -5 -7 -7 -15
-4 -8 4 -15 8 -15 10 0 2 7 4 15 4 8 0 15 -4 15 -10z m2005 -36 c9 -9 14 -21
12 -27 -4 -14 -54 -20 -62 -7 -11 17 -35 11 -35 -9 0 -17 6 -18 43 -14 23 2
50 6 60 8 9 2 17 0 17 -5 0 -4 -27 -13 -60 -19 -34 -7 -77 -18 -98 -24 -20 -7
-57 -10 -82 -7 l-45 5 31 17 c17 10 34 24 37 33 4 10 19 15 45 15 26 0 45 7
57 20 10 11 21 17 26 15 4 -3 10 -1 14 5 9 14 21 12 40 -6z m1140 -74 c0 -8
-10 -16 -22 -18 -22 -3 -32 16 -16 32 12 11 38 2 38 -14z m135 -45 c0 -15 7
-39 15 -54 28 -56 46 -174 40 -272 -4 -52 -7 -94 -8 -95 -1 -1 -11 -4 -22 -6
-15 -2 -20 2 -19 20 0 12 -3 22 -7 22 -4 0 -10 14 -14 30 -4 17 -11 30 -16 30
-19 0 -82 184 -80 235 1 16 6 34 11 39 5 5 5 16 0 27 -10 18 4 37 14 20 8 -12
42 -3 57 15 18 21 29 17 29 -11z m-391 -36 c10 -28 11 -29 33 -15 27 17 212
34 221 19 13 -21 -15 -35 -89 -45 -43 -5 -95 -7 -115 -5 l-36 5 8 -48 c15 -97
-10 -260 -41 -260 -9 0 -19 36 -30 115 -5 33 -14 99 -21 146 -7 47 -10 92 -7
101 4 8 19 15 36 16 25 0 32 -5 41 -29z m-859 -24 c12 -15 5 -55 -10 -55 -36
0 -53 33 -28 58 16 16 23 15 38 -3z m-1898 -9 c-5 -13 19 -26 53 -26 26 -1 23
-4 -23 -22 -45 -17 -65 -19 -120 -13 l-67 8 41 14 c26 9 44 22 47 34 4 16 12
20 39 17 18 -2 31 -7 30 -12z m2137 -17 l20 -21 -33 -34 c-37 -38 -92 -49 -82
-16 3 9 8 31 12 47 12 50 49 60 83 24z m-421 -46 c25 -80 26 -78 -58 -74 -41
2 -77 5 -79 7 -8 7 93 104 109 104 11 0 21 -14 28 -37z m-2384 -108 c-39 -17
-91 -30 -82 -20 9 10 80 34 98 34 8 0 1 -7 -16 -14z m702 -3 c18 -28 -6 -55
-40 -46 -30 7 -33 20 -9 46 20 23 35 23 49 0z m254 -29 c33 -16 59 -31 60 -35
0 -3 -15 -9 -32 -13 -18 -4 -52 -13 -76 -21 -23 -8 -53 -14 -66 -14 l-23 0 15
55 c18 66 32 69 122 28z m1078 -20 c-3 -30 -25 -42 -34 -19 -9 22 2 46 21 46
12 0 15 -8 13 -27z m247 -47 c0 -40 3 -46 18 -42 9 2 15 0 12 -4 -3 -5 3 -16
12 -26 17 -17 16 -17 -12 -10 -16 4 -33 12 -36 18 -4 6 -12 7 -19 3 -9 -6 -12
-3 -8 11 4 15 -1 19 -24 20 -15 1 -28 -3 -28 -9 0 -5 -9 2 -21 17 -24 30 -21
49 7 51 10 1 30 5 44 10 23 7 24 7 10 -10 -8 -11 -10 -16 -3 -12 7 4 17 0 23
-10 9 -15 10 -12 6 15 -4 24 -2 32 7 29 7 -2 12 -22 12 -51z m-2503 21 c-7 -8
-9 -17 -5 -20 3 -4 2 -7 -4 -7 -19 0 -21 12 -5 29 20 20 31 18 14 -2z m706 -4
c18 -40 15 -45 -20 -38 -44 9 -52 19 -39 44 16 29 44 26 59 -6z m-2058 -17 c0
-14 -4 -28 -10 -31 -5 -3 -10 -15 -10 -26 0 -10 -4 -19 -10 -19 -13 0 -13 41
0 74 12 33 30 34 30 2z m1460 -43 c0 -31 -62 -45 -207 -47 -57 -1 -56 15 1 35
25 8 49 19 53 22 3 4 28 7 54 7 26 0 51 4 54 10 8 12 45 -10 45 -27z m1817 11
c13 -13 18 -13 25 -2 7 10 8 9 4 -4 -3 -10 -1 -20 5 -24 6 -4 6 -11 -2 -21
-10 -12 -10 -16 2 -24 11 -7 9 -9 -8 -9 -13 0 -24 -8 -28 -20 -3 -11 -11 -20
-16 -20 -5 0 -9 -5 -9 -11 0 -15 63 0 73 17 11 19 54 18 54 -1 0 -8 -7 -15
-16 -15 -12 0 -11 -3 4 -13 10 -8 15 -19 11 -26 -5 -7 -2 -10 5 -9 7 2 13 -3
14 -10 0 -8 9 -20 19 -28 19 -13 18 -14 -13 -14 -29 0 -31 -2 -17 -15 8 -8 22
-12 30 -9 19 7 21 -7 4 -24 -10 -10 -5 -15 20 -24 18 -7 32 -15 32 -18 0 -9
-17 -32 -24 -31 -33 5 -36 -3 -6 -17 24 -12 34 -23 32 -36 -3 -15 1 -18 17
-13 12 3 21 2 21 -2 0 -4 12 -13 26 -20 16 -7 24 -18 22 -28 -2 -10 10 -30 27
-45 23 -22 27 -30 16 -37 -9 -6 -10 -11 -2 -15 6 -4 11 -13 11 -19 0 -7 -4 -6
-11 3 -8 12 -9 10 -5 -10 3 -14 6 -35 6 -48 0 -15 5 -22 13 -19 6 2 11 10 9
16 -1 6 2 11 8 11 5 0 10 -6 10 -14 0 -8 6 -21 13 -28 16 -16 29 -48 19 -48
-9 0 -7 -48 3 -75 16 -45 14 -50 -16 -47 -3 1 -11 -16 -18 -36 -8 -27 -25 -47
-61 -72 -27 -19 -50 -41 -50 -47 0 -7 -5 -13 -11 -13 -7 0 -22 -11 -34 -25
-22 -23 -29 -24 -123 -22 -98 2 -102 3 -137 35 -20 17 -42 32 -49 32 -6 0 -17
9 -24 20 -7 11 -23 20 -37 20 -14 0 -25 5 -25 11 0 7 -12 9 -34 5 -19 -4 -37
-3 -39 1 -11 18 -207 1 -207 -17 0 -5 -13 -11 -30 -15 -30 -7 -38 -19 -20 -30
13 -8 1 -35 -16 -35 -21 0 -54 37 -54 60 0 11 -4 20 -9 20 -5 0 -7 9 -4 19 3
13 11 18 21 14 14 -5 15 -3 5 8 -17 17 -17 41 0 37 7 -2 14 2 15 7 7 22 45 53
75 60 78 19 141 24 155 13 9 -8 18 -6 31 7 13 11 27 14 40 10 15 -4 21 -2 21
8 0 10 7 13 18 10 10 -2 26 5 36 16 11 12 14 21 8 21 -7 0 -12 9 -12 20 0 11
7 20 15 20 8 0 15 4 15 10 0 5 7 7 15 4 11 -5 15 1 15 19 0 14 7 28 16 31 20
8 9 26 -16 26 -15 0 -17 5 -11 28 5 19 16 29 37 33 24 5 26 7 12 13 -10 5 -25
6 -33 2 -8 -3 -15 -1 -15 4 0 6 5 10 11 10 6 0 9 7 5 15 -5 13 -2 14 15 4 26
-13 36 -5 19 16 -7 9 -8 15 -2 15 6 0 12 -5 14 -12 2 -6 10 -8 17 -4 8 5 9 12
2 19 -15 19 -1 67 20 67 11 0 19 7 19 15 0 9 6 12 15 9 8 -4 15 -1 15 6 0 16
-41 49 -62 50 -13 0 -16 7 -13 30 2 16 1 29 -3 27 -15 -4 -54 32 -47 44 5 7 1
17 -9 25 -16 11 -16 13 2 18 11 4 27 15 37 26 18 20 18 20 -13 14 -28 -6 -30
-4 -25 15 6 23 31 24 70 3 18 -10 22 -9 25 6 2 9 -3 22 -12 29 -8 6 -11 15 -6
20 5 4 11 2 13 -4 9 -24 23 -13 23 17 0 19 -5 30 -14 30 -8 0 -18 5 -21 10
-10 16 25 11 42 -6z m2388 -4 c3 -5 -1 -10 -9 -10 -8 0 -18 5 -21 10 -3 6 1
10 9 10 8 0 18 -4 21 -10z m-2444 -17 c-5 -10 -12 -26 -15 -35 -3 -10 -13 -18
-21 -18 -12 0 -15 6 -9 23 3 12 7 22 8 23 3 3 41 23 44 24 1 0 -2 -8 -7 -17z
m-498 -39 c4 -20 -2 -33 -27 -55 -33 -30 -59 -38 -50 -15 3 8 1 17 -5 21 -6 3
-11 14 -11 25 0 10 -8 21 -17 24 -29 11 5 26 58 26 42 0 47 -2 52 -26z m1356
-12 c19 -1 38 3 42 10 6 9 13 8 27 -6 14 -12 22 -14 27 -6 5 8 11 8 21 -1 7
-6 21 -9 29 -5 10 3 18 -1 22 -12 3 -9 14 -29 24 -43 l18 -26 -69 3 c-73 2
-111 11 -121 26 -3 5 -12 2 -19 -7 -10 -13 -10 -15 5 -15 10 0 16 -3 12 -6
-13 -13 -65 8 -71 29 -5 17 -8 19 -15 9 -11 -19 -71 -11 -85 10 -14 22 23 61
45 47 19 -12 32 -11 24 1 -3 6 1 7 9 4 10 -4 16 -1 16 7 1 11 3 11 13 -1 7 -8
27 -16 46 -18z m-3269 3 c0 -8 -4 -15 -10 -15 -5 0 -10 7 -10 15 0 8 5 15 10
15 6 0 10 -7 10 -15z m2548 -4 c3 -8 -1 -12 -9 -9 -7 2 -15 10 -17 17 -3 8 1
12 9 9 7 -2 15 -10 17 -17z m-2738 -118 c4 -37 3 -81 -1 -98 -5 -16 -10 -61
-12 -100 -2 -38 -11 -93 -19 -122 -8 -29 -11 -58 -7 -64 4 -7 2 -17 -6 -23 -7
-6 -15 -35 -17 -66 -4 -64 -25 -92 -43 -56 -47 91 -54 327 -13 413 6 11 7 26
3 33 -8 12 12 59 30 72 6 5 6 8 -2 8 -13 0 -10 28 7 60 7 12 18 19 25 16 8 -3
17 0 21 5 13 21 26 -10 34 -78z m810 77 c0 -5 -5 -10 -11 -10 -5 0 -7 5 -4 10
3 6 8 10 11 10 2 0 4 -4 4 -10z m2893 -7 c-7 -2 -21 -2 -30 0 -10 3 -4 5 12 5
17 0 24 -2 18 -5z m-2922 -23 c10 -6 19 -17 19 -25 0 -8 5 -15 11 -15 14 0 38
-30 39 -48 0 -15 25 -76 41 -102 5 -8 14 -26 19 -40 29 -71 48 -88 77 -71 14
7 12 11 -10 26 -30 19 -48 82 -27 95 8 5 4 9 -11 13 -16 4 -20 10 -13 19 5 7
9 24 9 38 0 19 -5 24 -19 22 -11 -2 -16 1 -14 10 3 7 1 26 -3 42 -6 21 -5 32
4 38 20 13 34 9 40 -9 3 -10 15 -43 26 -73 11 -30 17 -58 14 -62 -5 -10 35
-97 54 -116 18 -19 16 -30 -7 -37 -30 -10 -24 -25 9 -25 17 0 33 -5 36 -11 4
-5 12 -8 18 -6 7 2 20 0 30 -5 10 -5 17 -5 17 0 0 5 20 7 45 4 27 -3 45 -1 45
5 0 11 26 11 53 -1 9 -5 27 -6 40 -2 14 3 33 -1 45 -10 20 -14 22 -14 22 2 0
12 6 15 21 11 12 -3 32 -2 45 3 15 6 24 6 24 0 0 -6 14 -10 30 -10 17 0 30 5
30 10 0 6 4 10 9 10 11 0 9 -19 -3 -38 -5 -8 -4 -18 3 -25 8 -8 11 -5 11 12 0
14 7 25 20 28 11 3 20 9 20 14 0 5 14 9 30 9 27 0 35 -8 31 -32 0 -5 3 -8 8
-8 14 0 67 30 56 31 -25 3 77 21 130 23 33 1 78 8 100 16 29 9 40 10 43 1 2
-6 8 -9 13 -5 5 3 23 7 40 9 25 4 30 1 25 -12 -4 -8 -1 -22 5 -29 9 -11 7 -14
-10 -14 -22 0 -28 -14 -11 -25 6 -4 8 -10 5 -15 -7 -11 7 -20 39 -22 l26 -2
-25 -24 c-14 -12 -25 -31 -25 -42 0 -10 -5 -22 -11 -25 -6 -4 -8 -13 -5 -20 2
-7 1 -16 -4 -21 -5 -5 -11 -22 -14 -38 -3 -15 -11 -38 -19 -50 -41 -62 -40
-229 1 -279 7 -8 12 -19 10 -23 -3 -10 72 -88 85 -89 4 0 11 -6 16 -13 6 -10
13 -8 27 12 l19 26 53 -28 c52 -26 53 -27 33 -43 -11 -9 -40 -20 -65 -23 -34
-5 -43 -11 -41 -24 1 -9 0 -11 -2 -4 -3 6 -10 12 -16 13 -7 0 -22 2 -34 3 -12
1 -20 -1 -17 -6 3 -4 -2 -11 -10 -14 -22 -9 -20 -24 3 -24 11 0 23 -6 27 -12
4 -7 4 -10 -1 -6 -16 15 -86 -37 -78 -58 3 -8 -3 -16 -13 -20 -11 -3 -27 -10
-36 -15 -30 -15 -40 -11 -28 11 9 16 8 20 -5 20 -8 0 -20 -11 -25 -25 -5 -14
-14 -25 -19 -25 -5 0 -11 -9 -14 -20 -3 -11 -10 -19 -15 -18 -6 2 -18 -6 -26
-17 -16 -20 -16 -20 -27 -1 -11 17 -13 15 -25 -20 -8 -24 -10 -40 -4 -42 6 -2
10 -8 10 -13 0 -4 -6 -6 -13 -3 -8 3 -20 -2 -27 -11 -7 -8 -19 -15 -26 -15 -8
0 -19 -9 -26 -20 -8 -12 -19 -18 -33 -14 -15 4 -23 -3 -34 -28 -8 -18 -25 -47
-38 -64 -13 -17 -23 -36 -23 -42 0 -7 -7 -12 -15 -12 -8 0 -15 9 -15 19 0 11
-13 33 -30 49 -34 35 -38 57 -11 71 10 6 21 20 24 31 3 11 1 17 -4 14 -5 -3
-13 5 -18 18 -9 24 -49 32 -63 13 -5 -6 -8 -5 -8 3 0 6 -9 12 -20 12 -11 0
-20 7 -20 15 0 20 -6 19 -41 -5 -17 -13 -26 -26 -22 -35 4 -11 1 -13 -11 -9
-9 3 -16 14 -16 24 0 13 -9 20 -27 22 -21 2 -27 8 -26 23 1 11 0 27 -4 35 -7
16 -10 25 -12 37 0 4 -10 -3 -21 -15 -25 -26 -33 -27 -51 -6 -11 14 -10 16 11
12 13 -1 25 3 28 10 3 9 -3 13 -19 10 -16 -2 -23 2 -21 10 1 7 -4 15 -11 18
-9 3 -12 16 -9 35 4 27 2 30 -18 27 -13 -1 -25 3 -27 10 -3 6 0 12 6 12 19 0
12 28 -9 35 -11 3 -20 14 -20 23 0 13 -2 14 -9 4 -6 -11 -10 -10 -15 3 -3 10
-1 24 6 32 9 11 9 16 -3 24 -15 9 -6 13 24 9 15 -1 17 3 12 21 -9 27 -29 49
-44 49 -13 0 -13 -2 -2 37 7 22 6 33 -2 36 -8 3 -6 9 6 18 16 13 16 16 1 57
-10 23 -21 42 -26 42 -4 0 -8 9 -8 19 0 11 -5 21 -11 23 -9 3 -8 10 1 25 11
17 11 29 1 62 -11 37 -10 44 8 67 17 21 18 29 8 45 -15 24 -37 33 -37 14 0 -8
5 -15 10 -15 19 0 10 -15 -17 -27 -35 -17 -56 -17 -47 -1 23 37 -3 102 -28 67
-8 -11 -9 -11 -4 4 3 11 0 17 -9 17 -8 0 -15 -4 -15 -10 0 -5 -7 -10 -16 -10
-14 0 -14 2 0 15 8 8 23 15 33 15 12 0 14 3 6 8 -15 10 -1 34 17 30 8 -2 16 5
18 15 2 10 -2 17 -12 17 -9 0 -16 7 -16 15 0 8 -5 15 -10 15 -6 0 -18 6 -26
13 -47 38 -54 49 -52 78 2 20 -3 34 -15 40 -9 6 -17 18 -17 27 0 9 -12 28 -25
41 -14 13 -25 28 -24 35 4 30 -3 45 -21 51 -26 8 -23 45 5 62 25 15 22 15 46
3z m2026 -16 c-3 -3 -12 -4 -19 -1 -8 3 -5 6 6 6 11 1 17 -2 13 -5z m1496 -23
c-9 -12 -24 -21 -31 -21 -10 0 -13 -8 -10 -25 3 -14 1 -25 -3 -25 -5 0 -9 7
-9 15 0 18 -16 20 -23 3 -3 -8 -6 -7 -6 4 -1 16 -37 35 -47 25 -3 -3 -1 -22 5
-42 12 -44 -6 -89 -39 -100 -22 -7 -27 -25 -7 -25 8 0 7 -4 -3 -10 -13 -9 -13
-10 0 -10 12 0 12 -2 2 -8 -9 -7 -5 -18 18 -47 16 -21 30 -32 30 -24 1 11 3
10 13 -2 7 -9 17 -14 23 -12 14 5 24 -41 13 -59 -6 -9 -9 -7 -9 8 0 14 -11 25
-35 34 -19 8 -35 20 -35 27 0 10 -6 8 -21 -6 -16 -14 -20 -27 -15 -45 3 -14 2
-28 -4 -31 -13 -8 -13 -45 -1 -45 5 0 11 5 13 11 5 16 48 1 48 -16 0 -8 -8
-19 -17 -24 -16 -9 -16 -10 5 -11 12 0 22 -4 22 -10 0 -5 -7 -10 -15 -10 -8 0
-15 -4 -15 -9 0 -4 11 -6 25 -3 19 3 25 0 25 -13 0 -10 8 -24 18 -31 13 -10
15 -16 6 -31 -7 -10 -19 -17 -28 -15 -9 2 -16 -4 -16 -13 0 -8 -9 -24 -21 -36
-29 -29 -9 -51 21 -24 19 18 20 18 20 -3 0 -12 -5 -22 -12 -22 -9 0 -9 -3 0
-12 16 -16 15 -43 -2 -58 -8 -6 -12 -19 -9 -27 5 -12 2 -15 -10 -10 -20 7 -22
-4 -5 -21 7 -7 8 -12 2 -12 -5 0 -3 -4 5 -9 13 -8 13 -12 1 -26 -12 -15 -12
-18 3 -26 22 -13 22 -32 -3 -54 -11 -10 -17 -23 -13 -29 4 -6 -1 -5 -10 3 -10
8 -21 11 -25 7 -4 -4 1 -14 12 -21 10 -8 15 -18 11 -24 -8 -14 -35 -14 -35 -1
0 15 -37 12 -54 -5 -9 -9 -17 -11 -21 -5 -10 16 -28 12 -22 -5 8 -19 -9 -28
-39 -21 -15 4 -24 14 -24 26 0 13 -7 20 -20 20 -22 0 -27 -15 -7 -23 7 -4 6
-6 -4 -6 -9 -1 -19 -11 -22 -23 -6 -22 -6 -21 -33 5 -30 30 -46 35 -38 12 4
-8 10 -13 14 -10 4 3 10 -4 13 -15 3 -13 0 -20 -10 -20 -8 0 -11 5 -8 10 3 6
-3 10 -14 10 -12 0 -21 6 -22 13 0 10 -2 10 -6 0 -6 -17 -26 -17 -21 -1 7 21
-14 34 -49 30 -28 -4 -33 -1 -33 17 0 14 -6 21 -18 21 -10 0 -23 5 -30 12 -9
9 -12 8 -12 -6 0 -15 -3 -16 -14 -7 -13 11 -64 9 -106 -4 -26 -8 -66 38 -62
71 2 12 -4 28 -12 37 -9 9 -16 20 -16 25 0 6 -4 12 -10 14 -6 2 -4 14 4 30 14
27 26 195 14 213 -3 6 -10 28 -14 50 -4 22 -13 46 -21 53 -7 7 -13 22 -13 32
0 10 -4 21 -9 24 -5 3 -12 22 -15 41 -4 21 -13 35 -21 35 -11 0 -13 8 -8 31 5
25 2 31 -16 36 -25 6 -27 21 -5 51 8 12 22 35 30 50 9 19 14 22 14 10 0 -22
35 -24 44 -3 4 12 11 13 32 5 18 -7 31 -7 37 -1 7 7 15 7 23 0 8 -7 14 -7 19
1 10 16 33 12 38 -7 4 -15 5 -14 6 3 1 29 31 27 31 -3 0 -14 6 -23 15 -23 8 0
15 -7 15 -15 0 -22 17 -18 23 5 3 11 0 20 -6 20 -7 0 -3 7 7 15 23 18 46 21
29 4 -7 -7 -7 -17 1 -35 14 -30 24 -30 36 0 8 22 14 24 49 20 25 -3 41 -1 41
6 0 23 32 8 41 -20 7 -19 15 -27 22 -23 17 11 40 13 52 5 5 -4 19 -7 30 -7 11
0 23 -4 28 -10 5 -7 9 -7 15 1 4 6 15 13 25 17 24 9 22 37 -2 30 -11 -3 -28 4
-40 16 -12 12 -26 19 -31 16 -18 -11 -11 37 7 50 16 12 16 14 0 29 -25 25 -21
36 12 36 36 0 48 15 24 29 -11 6 -13 11 -5 11 7 0 23 -6 35 -14 19 -12 39 -11
159 7 75 12 140 25 144 30 16 16 14 -2 -3 -22z m-233 -2 c-19 -4 -39 -4 -45
-1 -12 8 56 20 70 13 5 -3 -6 -8 -25 -12z m655 11 c3 -5 1 -10 -4 -10 -6 0
-11 5 -11 10 0 6 2 10 4 10 3 0 8 -4 11 -10z m-2870 -20 c-3 -5 -13 -10 -21
-10 -8 0 -14 5 -14 10 0 6 9 10 21 10 11 0 17 -4 14 -10z m85 6 c0 -18 -14
-34 -26 -29 -8 3 -14 -1 -14 -10 0 -8 -11 -18 -25 -21 -14 -4 -25 -11 -25 -17
0 -6 -5 -7 -10 -4 -6 3 -13 -1 -16 -9 -9 -22 -19 -20 -31 7 -10 21 -11 21 -26
-13 -8 -19 -16 -28 -16 -20 -1 12 -11 15 -43 12 -24 -2 -49 -9 -56 -15 -7 -5
-15 -7 -19 -4 -3 4 2 9 11 13 9 3 16 12 16 20 0 8 4 14 9 14 6 0 24 13 42 30
21 19 36 26 40 19 5 -8 8 -8 13 0 12 19 29 12 23 -9 -6 -24 1 -25 31 -5 12 9
39 18 59 21 21 2 40 9 41 14 4 10 22 14 22 6z m2806 -56 c4 -24 12 -40 20 -40
11 0 13 -8 8 -27 -9 -36 -7 -36 -38 -22 -26 12 -38 59 -15 59 9 0 7 16 -8 58
-3 6 2 12 11 12 11 0 18 -13 22 -40z m-2499 15 c8 -3 9 -13 4 -31 -8 -32 -49
-49 -68 -29 -9 10 -5 14 20 20 31 6 31 7 10 17 -13 6 -23 17 -23 24 0 11 16
11 57 -1z m-2096 -5 c10 -6 19 -17 19 -25 0 -7 5 -15 12 -17 8 -3 8 -12 1 -33
-7 -23 -16 -31 -39 -33 l-30 -3 6 55 c4 35 2 57 -4 60 -6 2 -5 5 2 5 7 1 22
-4 33 -9z m2019 -15 c-7 -8 -17 -12 -22 -9 -6 4 -5 10 3 15 22 14 33 10 19 -6z
m-2790 -5 c0 -5 -9 -10 -20 -10 -11 0 -20 5 -20 10 0 6 9 10 20 10 11 0 20 -4
20 -10z m4511 -49 c-20 -20 -21 -20 -21 -2 0 11 8 21 18 23 25 6 26 2 3 -21z
m1539 14 c0 -8 -9 -15 -20 -15 -20 0 -26 11 -13 23 12 13 33 7 33 -8z m-6080
-15 c0 -5 -7 -10 -16 -10 -8 0 -12 5 -9 10 3 6 10 10 16 10 5 0 9 -4 9 -10z
m6020 -10 c0 -5 -5 -10 -11 -10 -5 0 -7 5 -4 10 3 6 8 10 11 10 2 0 4 -4 4
-10z m-3740 -100 c0 -5 -4 -10 -10 -10 -5 0 -10 5 -10 10 0 6 5 10 10 10 6 0
10 -4 10 -10z m-2315 -40 c3 -11 3 -24 0 -30 -10 -16 -45 8 -45 30 0 27 37 26
45 0z m915 -16 c0 -8 -6 -11 -15 -8 -8 4 -15 12 -15 20 0 8 6 11 15 8 8 -4 15
-12 15 -20z m-40 -35 c0 -5 5 -7 10 -4 6 3 10 1 10 -4 0 -6 7 -11 15 -11 22 0
40 -51 23 -62 -9 -6 -10 -10 -2 -15 7 -5 12 -21 12 -37 0 -15 3 -31 8 -35 13
-9 15 -70 5 -108 -6 -19 -6 -35 -1 -38 5 -3 1 -20 -8 -37 -18 -32 -18 -32
-106 -33 -77 -1 -91 1 -107 19 -11 11 -17 28 -14 37 5 14 12 104 14 182 1 10
9 17 21 17 20 0 26 26 21 83 -1 9 3 17 8 17 6 0 11 -4 11 -10 0 -5 9 -1 20 10
11 11 20 25 20 30 0 6 9 10 20 10 11 0 20 -5 20 -11z m-830 -84 c0 -16 -6 -25
-16 -25 -11 0 -14 5 -10 16 3 9 6 20 6 25 0 5 5 9 10 9 6 0 10 -11 10 -25z
m-260 -5 c0 -11 -2 -20 -4 -20 -2 0 -6 9 -9 20 -3 11 -1 20 4 20 5 0 9 -9 9
-20z m6365 -27 c-6 -54 -16 -69 -42 -58 -12 5 -14 9 -5 12 17 7 15 33 -3 33
-8 0 -15 9 -15 20 0 13 7 20 19 20 11 0 23 5 26 10 15 24 24 6 20 -37z m-6381
-38 c-6 -16 -24 -21 -24 -7 0 11 11 22 21 22 5 0 6 -7 3 -15z m166 -61 c0 -8
-4 -12 -10 -9 -5 3 -10 10 -10 16 0 5 5 9 10 9 6 0 10 -7 10 -16z m4020 -23
c0 -4 7 -8 15 -9 8 -1 21 -3 29 -4 8 -1 12 -7 9 -15 -3 -8 2 -13 15 -13 32 0
33 -25 2 -55 -27 -26 -30 -27 -59 -12 -26 13 -31 13 -31 1 0 -8 -2 -14 -4 -14
-2 0 -11 -3 -20 -6 -11 -4 -16 -1 -16 10 0 9 -7 16 -15 16 -19 0 -19 14 -2 32
8 7 17 27 21 43 4 16 12 33 18 36 13 8 38 1 38 -10z m-2270 -36 c0 -8 -4 -15
-10 -15 -5 0 -10 7 -10 15 0 8 5 15 10 15 6 0 10 -7 10 -15z m3244 -31 c10
-25 -1 -29 -14 -5 -6 12 -7 21 -1 21 5 0 12 -7 15 -16z m-994 -99 c0 -8 9 -15
19 -15 11 0 23 -4 26 -10 16 -26 -48 -80 -95 -80 -11 0 -20 -7 -20 -15 0 -8
-7 -15 -15 -15 -8 0 -20 -9 -27 -20 -8 -12 -24 -20 -40 -20 -21 0 -28 -5 -28
-19 0 -22 -25 -45 -39 -37 -5 4 -11 -6 -13 -21 -3 -25 -7 -28 -40 -28 -47 0
-51 -5 -39 -46 7 -27 9 -29 10 -11 1 19 5 22 24 16 29 -9 28 -6 32 -53 4 -38
2 -41 -20 -42 -47 -3 -50 -4 -49 -27 0 -14 -5 -22 -17 -22 -9 0 -19 -9 -22
-19 -3 -13 -18 -21 -48 -27 -24 -4 -48 -6 -54 -5 -5 2 -20 3 -32 3 -15 0 -23
7 -23 18 0 35 -27 30 -67 -12 -15 -15 -19 -15 -46 -2 -16 9 -35 13 -43 10 -22
-9 -65 12 -71 34 -3 11 -11 20 -19 20 -8 0 -12 10 -11 27 2 22 -3 29 -20 31
-13 2 -23 8 -23 14 0 6 -8 8 -17 6 -15 -4 -18 2 -20 31 -1 20 -6 37 -12 39
-27 9 -59 51 -54 71 4 17 1 21 -17 21 -12 0 -33 9 -47 20 -14 11 -36 20 -49
20 -13 0 -24 5 -24 10 0 6 -7 10 -15 10 -21 0 -19 13 5 35 11 10 20 25 20 33
0 9 6 12 16 8 9 -3 33 -9 54 -12 27 -5 40 -12 45 -28 4 -12 8 -16 11 -9 4 9
12 8 32 -5 18 -12 49 -17 101 -18 88 -2 131 -18 131 -48 1 -27 44 -59 69 -51
12 3 21 0 25 -10 3 -9 14 -15 23 -14 10 1 26 -1 36 -6 24 -10 67 3 67 21 0 9
8 14 18 13 36 -3 51 2 57 20 3 10 21 34 39 53 27 28 46 37 88 44 29 4 59 7 66
7 6 0 12 4 12 11 0 17 75 86 94 86 9 0 16 7 16 15 0 8 9 15 20 15 11 0 20 -7
20 -15z m-3751 -35 c-25 -44 -33 -48 -56 -25 -27 27 6 62 60 64 17 1 17 -2 -4
-39z m631 36 c0 -11 -19 -15 -25 -6 -3 5 1 10 9 10 9 0 16 -2 16 -4z m-570
-46 c0 -5 -5 -10 -11 -10 -5 0 -7 5 -4 10 3 6 8 10 11 10 2 0 4 -4 4 -10z
m1490 -111 c0 -5 -4 -9 -10 -9 -5 0 -10 7 -10 16 0 8 5 12 10 9 6 -3 10 -10
10 -16z m3164 -60 c-3 -5 -10 -7 -15 -3 -5 3 -7 10 -3 15 3 5 10 7 15 3 5 -3
7 -10 3 -15z m1006 -9 c0 -13 5 -18 15 -14 18 7 20 -7 3 -25 -7 -8 -8 -11 -3
-9 6 4 10 -14 11 -43 1 -27 0 -49 -2 -49 -29 0 -48 44 -22 52 6 2 9 11 5 20
-4 13 -13 15 -41 8 -28 -6 -36 -5 -36 6 0 8 5 14 10 14 6 0 10 9 10 21 0 15 5
19 15 15 9 -3 15 0 15 9 0 8 5 15 10 15 6 0 10 -9 10 -20z m-192 -2 c14 -14
16 -28 2 -28 -5 0 -14 9 -20 20 -12 22 -1 27 18 8z m-5463 -28 c3 -5 -3 -10
-15 -10 -12 0 -18 5 -15 10 3 6 10 10 15 10 5 0 12 -4 15 -10z m5605 -110 c0
-5 -4 -10 -10 -10 -5 0 -10 5 -10 10 0 6 5 10 10 10 6 0 10 -4 10 -10z m45
-40 c10 -11 15 -23 12 -27 -8 -7 -47 25 -47 39 0 14 16 9 35 -12z m-2762 -2
c21 4 23 -14 1 -22 -19 -7 -64 -8 -64 -1 0 13 26 32 35 27 6 -4 18 -5 28 -4z
m-3568 -8 c-3 -5 -15 -10 -26 -10 -11 0 -17 5 -14 10 3 6 15 10 26 10 11 0 17
-4 14 -10z m3396 -33 c-10 -9 -11 -8 -5 6 3 10 9 15 12 12 3 -3 0 -11 -7 -18z
m-1131 4 c0 -5 -7 -14 -16 -22 -13 -10 -17 -10 -25 2 -14 23 -11 29 16 29 14
0 25 -4 25 -9z m-780 -71 c0 -32 -25 -80 -42 -80 -6 0 -8 7 -4 15 3 8 4 15 2
15 -3 0 -12 3 -20 6 -11 4 -15 2 -13 -7 2 -8 2 -11 0 -6 -3 4 -9 5 -14 2 -5
-4 -6 1 -3 9 4 11 0 16 -10 16 -9 0 -16 -8 -16 -17 0 -12 -5 -9 -15 11 -18 33
-19 44 -4 29 14 -14 54 -5 76 17 10 11 28 19 41 19 18 1 22 -4 22 -29z m-1560
5 c0 -8 -7 -15 -15 -15 -16 0 -20 12 -8 23 11 12 23 8 23 -8z m195 -15 c3 -5
0 -18 -6 -28 -16 -25 -60 -26 -66 -1 -3 11 -9 19 -14 19 -5 0 -9 4 -9 8 0 12
88 13 95 2z m3225 -14 c0 -11 -19 -15 -25 -6 -3 5 1 10 9 10 9 0 16 -2 16 -4z
m-3162 -48 c-7 -19 -38 -22 -38 -4 0 10 9 16 21 16 12 0 19 -5 17 -12z m3847
-17 c-5 -12 -2 -11 13 2 21 19 74 25 55 6 -6 -6 -9 -19 -6 -28 4 -12 2 -11 -9
3 -14 18 -15 18 -22 1 -3 -10 -2 -23 4 -30 16 -19 -5 -29 -22 -11 -9 9 -20 11
-35 5 -13 -5 -30 -6 -38 -3 -11 5 -17 -3 -21 -26 -5 -22 -15 -35 -33 -41 -22
-9 -28 -7 -44 15 -11 16 -23 23 -30 19 -20 -13 -56 -10 -62 5 -3 8 -12 11 -25
7 -11 -3 -20 -2 -20 4 0 5 -3 16 -6 25 -4 12 0 16 15 16 14 0 21 6 21 20 0 23
18 27 26 6 7 -18 136 -15 158 3 11 9 16 9 21 0 6 -8 10 -8 16 3 11 19 51 19
44 -1z m-3699 -23 c4 -5 -4 -8 -17 -6 -12 1 -24 8 -26 15 -5 14 34 6 43 -9z
m2204 -3 c0 -3 -11 -17 -25 -31 -14 -14 -25 -22 -25 -19 0 3 -11 -2 -25 -11
-23 -15 -25 -15 -19 0 3 9 12 16 20 16 8 0 14 6 14 13 0 8 10 19 23 25 25 12
37 14 37 7z m779 -61 c9 -9 -22 -31 -43 -31 -18 0 -23 5 -23 24 0 22 2 23 31
17 17 -3 33 -8 35 -10z m476 -34 c3 -5 1 -10 -4 -10 -6 0 -11 5 -11 10 0 6 2
10 4 10 3 0 8 -4 11 -10z m-2925 -30 c15 -8 16 -13 7 -35 -8 -15 -20 -25 -34
-25 -29 0 -35 13 -23 44 10 28 21 32 50 16z m1939 -109 c2 -1 -2 -8 -9 -16 -7
-9 -10 -19 -6 -22 11 -11 -56 -39 -81 -35 -14 3 -23 12 -23 23 0 10 -5 21 -12
25 -24 15 24 34 76 30 28 -2 53 -5 55 -5z m-1534 -42 c7 -11 -53 -49 -78 -49
-19 0 -32 23 -24 43 6 16 94 21 102 6z m2918 -32 c45 -1 62 -7 73 -22 14 -18
13 -20 -5 -23 -20 -3 -20 -3 0 -23 10 -10 19 -26 19 -35 0 -8 5 -12 10 -9 22
14 9 -51 -15 -74 -30 -28 -31 -38 -5 -46 11 -3 20 -10 20 -15 0 -5 -7 -7 -15
-4 -9 4 -15 0 -15 -7 0 -12 -2 -12 -9 0 -11 18 -54 5 -47 -15 3 -7 -4 -18 -14
-24 -11 -6 -21 -8 -21 -5 -1 3 -3 10 -4 15 -1 6 -3 13 -4 18 -1 4 -10 -3 -20
-15 -12 -15 -22 -18 -32 -12 -8 5 -25 8 -39 8 -23 0 -24 -1 -5 -10 16 -8 14
-8 -11 -5 -17 3 -37 0 -43 -7 -10 -9 -15 -8 -24 4 -13 17 -36 14 -53 -9 -14
-19 -104 -23 -104 -5 0 7 -4 13 -10 13 -5 0 -10 -5 -10 -11 0 -7 -9 -9 -22 -4
-73 21 -89 23 -103 8 -9 -9 -34 -15 -60 -15 -25 0 -47 -4 -51 -9 -9 -16 -47
-11 -41 6 4 8 2 17 -3 20 -6 4 -10 -2 -10 -11 0 -13 -3 -15 -11 -7 -8 8 -7 19
4 39 8 16 12 35 10 42 -3 6 2 12 10 12 13 0 14 6 6 32 -13 45 -11 52 6 38 18
-15 49 -5 42 14 -9 22 33 96 53 96 10 0 20 -6 23 -12 3 -10 7 -10 20 1 9 7 26
11 38 8 12 -3 22 0 26 9 7 20 33 17 58 -6 19 -18 23 -18 41 -5 11 8 14 15 7
15 -20 0 -15 17 7 23 14 4 27 -4 44 -26 l24 -30 31 34 c22 24 39 33 55 31 15
-2 26 3 30 13 5 14 15 16 49 11 23 -3 68 -7 100 -9z m-3067 -36 c35 -19 35
-20 14 -31 -12 -6 -24 -9 -27 -6 -4 3 -12 1 -20 -5 -10 -9 -13 -7 -13 9 0 11
-3 27 -6 36 -8 21 8 20 52 -3z m1604 -11 c0 -5 -4 -10 -10 -10 -5 0 -10 5 -10
10 0 6 5 10 10 10 6 0 10 -4 10 -10z m130 -30 c0 -5 -4 -10 -10 -10 -5 0 -10
5 -10 10 0 6 5 10 10 10 6 0 10 -4 10 -10z m574 -61 c-5 -9 -34 -13 -34 -5 0
2 3 12 6 20 5 13 9 14 20 5 8 -6 11 -15 8 -20z m-384 1 c0 -5 -7 -10 -16 -10
-8 0 -12 5 -9 10 3 6 10 10 16 10 5 0 9 -4 9 -10z m1292 -14 c6 4 9 1 7 -5 -8
-22 -24 -16 -26 9 -1 15 0 18 3 7 3 -9 10 -14 16 -11z m-3067 -27 c4 -6 5 -12
3 -14 -7 -7 -48 7 -48 16 0 13 37 11 45 -2z m58 -5 c11 -11 -5 -34 -24 -34
-21 0 -22 1 -13 24 6 16 25 21 37 10z m1682 -111 c16 -36 16 -63 0 -70 -9 -3
-21 -1 -27 5 -6 6 -27 8 -47 6 -29 -4 -33 -3 -18 6 9 6 17 15 17 20 0 16 34
48 51 49 9 1 20 -7 24 -16z m485 13 c0 -3 -4 -8 -10 -11 -5 -3 -10 -1 -10 4 0
6 5 11 10 11 6 0 10 -2 10 -4z m387 -62 c-3 -3 -12 -4 -19 -1 -8 3 -5 6 6 6
11 1 17 -2 13 -5z m-3147 -64 c0 -5 -2 -10 -4 -10 -3 0 -8 5 -11 10 -3 6 -1
10 4 10 6 0 11 -4 11 -10z m5031 -6 c83 -19 95 -40 17 -29 -29 4 -62 8 -73 7
-27 0 -75 18 -75 29 0 14 53 11 131 -7z m-1354 -1 c-7 -6 23 -22 73 -38 18 -6
22 -4 17 9 -7 18 8 32 18 16 4 -7 13 -7 26 1 29 15 63 -15 48 -42 -5 -11 -16
-19 -24 -19 -10 0 -13 -10 -12 -34 4 -38 -36 -108 -46 -82 -3 8 1 20 9 26 19
17 18 29 -3 26 -10 -2 -21 -16 -25 -33 -6 -25 -12 -30 -28 -26 -13 4 -20 0
-20 -9 0 -9 -16 -32 -35 -52 -19 -21 -35 -34 -35 -30 0 4 -3 4 -7 1 -3 -4 3
-15 14 -24 24 -21 40 -63 24 -63 -21 0 -11 -21 14 -30 22 -8 24 -13 15 -35 -5
-14 -19 -35 -30 -47 l-20 -22 21 -19 c15 -14 18 -22 9 -27 -7 -4 -9 -13 -5
-20 6 -9 0 -12 -23 -8 -19 3 -30 0 -29 -6 1 -7 -14 -10 -37 -10 -23 1 -33 -2
-25 -7 11 -6 10 -12 -5 -28 -10 -11 -15 -24 -12 -29 3 -6 -1 -12 -9 -16 -8 -3
-15 -12 -15 -21 0 -8 -5 -15 -10 -15 -6 0 -9 3 -9 8 4 21 -3 32 -20 32 -11 0
-22 -6 -25 -12 -3 -10 -9 -8 -19 5 -17 21 -39 23 -31 2 4 -10 0 -15 -11 -15
-11 0 -15 -5 -11 -16 4 -12 -1 -10 -23 6 -19 13 -32 17 -36 10 -4 -6 -12 -10
-18 -9 -27 3 -35 -2 -30 -21 4 -14 0 -20 -11 -20 -9 0 -16 6 -16 13 0 9 -2 9
-9 -1 -7 -11 -9 -11 -14 2 -7 17 -32 12 -56 -11 -10 -11 -16 -11 -27 -2 -11 9
-14 9 -14 -1 0 -14 -56 -4 -85 16 -28 20 -56 17 -62 -5 -4 -17 -51 -36 -63
-25 -2 3 -4 19 -5 36 0 27 -5 33 -32 40 -22 6 -33 15 -33 26 0 10 -6 26 -12
35 -11 15 -18 15 -53 5 -22 -7 -43 -17 -47 -22 -9 -14 -26 33 -20 56 6 25 18
23 25 -4 8 -29 15 -20 20 25 4 34 2 38 -26 45 -36 9 -48 32 -18 32 12 0 21 5
21 10 0 6 10 20 21 31 17 17 19 23 8 30 -12 8 -12 11 1 19 13 8 11 11 -7 16
-13 4 -23 11 -23 16 0 6 7 8 15 4 8 -3 27 6 41 19 l27 25 -26 0 c-14 0 -29 -4
-32 -10 -3 -5 -23 -10 -43 -10 -31 0 -34 -2 -18 -13 16 -12 16 -14 -3 -36 -15
-17 -26 -21 -38 -16 -10 5 -24 7 -31 6 -10 -2 -11 2 -3 18 13 24 6 30 -31 25
-25 -2 -27 0 -18 16 14 26 13 29 -10 23 -24 -6 -29 24 -5 33 24 9 18 32 -12
48 -29 15 -31 14 24 32 15 4 15 7 3 15 -11 8 -12 12 -2 16 6 2 12 11 12 19 0
8 6 11 16 7 13 -5 14 0 9 30 -6 33 -5 35 14 30 20 -5 20 -6 4 -19 -14 -10 -14
-13 -4 -14 8 0 23 -7 33 -17 10 -9 18 -11 18 -6 0 14 59 35 73 26 5 -3 16 2
23 11 11 16 14 16 37 2 14 -10 32 -14 42 -9 14 5 17 3 12 -9 -6 -18 12 -28 46
-27 l22 0 -22 9 c-37 15 -27 18 38 13 46 -5 63 -3 70 8 8 12 10 12 18 0 6 -10
24 -12 66 -9 39 3 52 2 40 -5 -13 -7 -14 -11 -5 -17 7 -4 15 -28 17 -54 7 -56
23 -71 23 -21 0 22 4 34 10 30 6 -3 10 -22 10 -42 0 -35 0 -36 20 -18 11 10
17 23 13 29 -3 6 -3 8 2 4 11 -10 45 10 45 27 0 18 4 18 33 3 12 -6 29 -14 37
-18 8 -4 19 -16 25 -28 12 -26 35 -29 36 -4 0 14 2 14 7 2 9 -20 32 -24 32 -5
0 8 -4 15 -10 15 -5 0 -7 7 -3 16 5 13 2 15 -16 9 -20 -6 -22 -4 -17 13 8 24
-7 36 -61 53 -48 14 -58 29 -15 22 19 -3 23 -2 13 5 -8 6 -11 17 -7 28 5 14 9
15 15 6 6 -11 16 -9 44 7 33 18 36 18 42 3 5 -12 9 -13 12 -4 3 6 9 10 13 7 5
-3 15 4 23 16 14 20 16 20 26 2 7 -11 13 -14 18 -8 9 12 84 38 108 38 8 0 15
4 15 9 0 4 8 8 17 8 9 0 13 -3 10 -7z m-1367 -33 c0 -5 -8 -10 -17 -10 -15 0
-16 2 -3 10 19 12 20 12 20 0z m222 -80 c6 0 7 -7 4 -16 -4 -9 -1 -23 5 -30 6
-8 7 -14 2 -14 -5 0 -16 12 -24 28 -8 15 -18 31 -24 35 -6 5 -2 6 8 3 10 -3
23 -6 29 -6z m685 -4 c-3 -7 0 -19 6 -26 10 -10 7 -10 -10 -1 -13 6 -23 9 -23
5 0 -4 -3 -4 -7 -1 -3 4 2 14 13 22 24 18 27 18 21 1z m73 -16 c0 -5 -5 -10
-11 -10 -5 0 -7 5 -4 10 3 6 8 10 11 10 2 0 4 -4 4 -10z m1982 -18 c10 -10 2
-12 -42 -8 -69 5 -68 5 -52 14 19 13 80 8 94 -6z m-2075 -13 c-14 -8 -22 -8
-30 0 -8 8 -3 11 19 11 25 -1 27 -2 11 -11z m2053 -79 c5 -7 15 -10 24 -7 8 3
18 2 22 -4 3 -5 24 -9 47 -8 47 2 97 -15 97 -32 0 -7 -9 -9 -27 -4 -16 4 -74
9 -130 11 -56 1 -112 8 -124 14 -19 11 -19 13 -5 28 17 20 84 21 96 2z m-140
-11 c0 -12 -77 -11 -85 1 -3 5 13 9 40 8 25 0 45 -4 45 -9z m-1409 -40 l-10
-24 0 26 c-1 14 2 29 6 33 12 12 14 -9 4 -35z m-1154 25 c-3 -3 -12 -4 -19 -1
-8 3 -5 6 6 6 11 1 17 -2 13 -5z m2973 -50 c17 -17 3 -18 -34 -4 -32 12 -35
34 -3 25 12 -4 29 -13 37 -21z m140 11 c0 -19 -17 -19 -50 0 l-25 14 38 1 c26
0 37 -4 37 -15z m-1950 -70 c0 -5 -5 -3 -10 5 -5 8 -10 20 -10 25 0 6 5 3 10
-5 5 -8 10 -19 10 -25z m-2802 -17 c-2 -17 -26 -31 -127 -70 -68 -27 -125 -47
-128 -45 -2 3 35 26 84 52 48 27 102 56 118 66 40 25 57 24 53 -3z m4472 -3
c0 -8 -7 -15 -15 -15 -8 0 -15 7 -15 15 0 8 7 15 15 15 8 0 15 -7 15 -15z
m375 -30 c61 -6 77 -9 120 -28 22 -10 50 -16 62 -13 12 4 23 1 25 -7 3 -8 32
-13 87 -14 46 -1 89 -7 97 -14 8 -6 14 -8 14 -3 0 5 5 1 11 -8 5 -10 16 -18
24 -18 24 0 125 -69 125 -85 0 -23 -64 -18 -118 9 -26 13 -58 27 -72 31 -14 4
-43 16 -65 25 -60 27 -136 49 -227 66 -76 14 -169 52 -182 73 -4 6 6 6 26 0
18 -6 51 -12 73 -14z m-3026 -15 c17 0 13 -17 -6 -24 -19 -8 -33 9 -33 39 1
19 1 19 14 3 7 -10 18 -18 25 -18z m2549 -5 c11 -14 25 -25 30 -25 19 0 24
-19 17 -60 -8 -45 -21 -51 -35 -16 -5 13 -18 27 -28 30 -13 4 -22 19 -25 43
-10 58 8 70 41 28z m-4463 -54 c-6 -5 -23 -12 -40 -16 -29 -6 -29 -6 -11 9 21
17 67 23 51 7z m2902 -38 c-3 -10 -5 -4 -5 12 0 17 2 24 5 18 2 -7 2 -21 0
-30z m-3022 -13 c-3 -5 -10 -10 -16 -10 -5 0 -9 5 -9 10 0 6 7 10 16 10 8 0
12 -4 9 -10z m4755 -70 c0 -5 -2 -10 -4 -10 -3 0 -8 5 -11 10 -3 6 -1 10 4 10
6 0 11 -4 11 -10z m-5564 -10 c13 -13 83 -20 89 -9 6 9 53 2 70 -11 6 -5 20
-10 33 -12 33 -5 31 -22 -3 -28 -16 -3 -29 -9 -28 -15 1 -18 -9 -35 -21 -35
-7 0 -28 -11 -46 -25 -19 -14 -52 -31 -73 -37 -35 -11 -39 -9 -68 18 -17 16
-36 40 -42 54 -14 32 -15 93 -2 102 15 11 79 10 91 -2z m5567 -24 c3 -8 -2
-16 -14 -19 -11 -3 -19 0 -19 7 0 26 24 35 33 12z m-4763 0 c0 -7 -61 -36 -74
-36 -19 1 35 40 55 40 10 0 19 -2 19 -4z m4747 -52 c-3 -3 -12 -4 -19 -1 -8 3
-5 6 6 6 11 1 17 -2 13 -5z m-281 -86 c-9 -12 -16 -20 -16 -16 0 3 -3 13 -6
21 -3 10 1 17 13 19 26 6 27 2 9 -24z m-4736 12 c-8 -5 -19 -10 -25 -10 -5 0
-3 5 5 10 8 5 20 10 25 10 6 0 3 -5 -5 -10z m160 -25 c0 -8 -7 -15 -15 -15 -8
0 -17 -11 -21 -25 -3 -14 -12 -25 -19 -25 -19 0 -28 17 -13 22 7 3 13 13 13
23 0 12 10 22 25 26 14 4 26 7 28 8 1 1 2 -6 2 -14z m-286 -46 c-16 -18 -73
-48 -149 -79 -11 -4 -45 -20 -76 -34 -31 -14 -59 -26 -63 -26 -20 0 12 22 89
60 47 24 89 49 94 57 12 22 52 41 90 42 34 1 34 1 15 -20z m141 -9 c3 -6 3
-20 0 -31 -6 -19 -9 -20 -22 -6 -9 9 -13 23 -10 31 7 18 23 21 32 6z m-5 -75
c16 -19 0 -19 -26 0 -16 12 -16 14 -3 15 9 0 22 -7 29 -15z m6046 -22 c-5 -12
-10 -13 -17 -6 -8 8 -7 16 2 26 16 17 24 5 15 -20z m49 -33 c3 -5 -1 -10 -9
-10 -9 0 -16 5 -16 10 0 6 4 10 9 10 6 0 13 -4 16 -10z m-6535 -4 c0 -3 -4 -8
-10 -11 -5 -3 -10 -1 -10 4 0 6 5 11 10 11 6 0 10 -2 10 -4z m-85 -46 c-3 -5
-11 -10 -16 -10 -6 0 -7 5 -4 10 3 6 11 10 16 10 6 0 7 -4 4 -10z m379 -155
c3 -8 1 -15 -4 -15 -6 0 -10 7 -10 15 0 8 2 15 4 15 2 0 6 -7 10 -15z m883
-121 c-3 -3 -12 -4 -19 -1 -8 3 -5 6 6 6 11 1 17 -2 13 -5z"/>
<path d="M1676 7651 c-3 -5 1 -11 9 -15 15 -6 29 7 18 18 -9 9 -21 8 -27 -3z"/>
<path d="M1515 7130 c-3 -5 -1 -10 4 -10 6 0 11 5 11 10 0 6 -2 10 -4 10 -3 0
-8 -4 -11 -10z"/>
<path d="M1507 7044 c-13 -13 -7 -42 9 -48 24 -9 26 -8 22 21 -3 26 -18 39
-31 27z"/>
<path d="M5620 7431 c0 -5 5 -13 10 -16 6 -3 10 -2 10 4 0 5 -4 13 -10 16 -5
3 -10 2 -10 -4z"/>
<path d="M3710 5572 c0 -5 16 -13 35 -19 41 -13 59 2 20 17 -32 12 -55 13 -55
2z"/>
<path d="M3870 5506 c0 -9 -7 -16 -15 -16 -8 0 -15 -5 -15 -11 0 -6 9 -8 20
-4 14 5 20 2 20 -9 0 -18 25 -22 35 -6 3 6 2 10 -4 10 -5 0 -11 10 -13 22 -4
25 -28 37 -28 14z"/>
<path d="M3530 5470 c0 -5 5 -10 11 -10 5 0 7 5 4 10 -3 6 -8 10 -11 10 -2 0
-4 -4 -4 -10z"/>
<path d="M3325 5430 c3 -5 8 -10 11 -10 2 0 4 5 4 10 0 6 -5 10 -11 10 -5 0
-7 -4 -4 -10z"/>
<path d="M2970 5350 c0 -5 4 -10 9 -10 6 0 13 5 16 10 3 6 -1 10 -9 10 -9 0
-16 -4 -16 -10z"/>
<path d="M4455 5287 c-4 -10 -5 -21 -1 -24 10 -10 18 4 13 24 -4 17 -4 17 -12
0z"/>
<path d="M4394 5235 c-1 -14 2 -25 7 -25 5 0 9 4 9 9 0 5 3 16 6 25 4 10 1 16
-7 16 -8 0 -15 -11 -15 -25z"/>
<path d="M3938 5173 c7 -3 16 -2 19 1 4 3 -2 6 -13 5 -11 0 -14 -3 -6 -6z"/>
<path d="M3994 5162 c3 -6 0 -13 -6 -15 -10 -4 -9 -8 2 -16 20 -14 27 -14 33
2 3 7 -4 19 -15 26 -11 7 -17 8 -14 3z"/>
<path d="M4139 4901 c8 -5 11 -17 7 -28 -4 -14 -2 -20 9 -20 10 0 15 10 15 29
0 22 -4 28 -22 28 -17 0 -19 -3 -9 -9z"/>
<path d="M4630 4750 c0 -5 5 -10 11 -10 5 0 7 5 4 10 -3 6 -8 10 -11 10 -2 0
-4 -4 -4 -10z"/>
<path d="M3138 4713 c6 -2 18 -2 25 0 6 3 1 5 -13 5 -14 0 -19 -2 -12 -5z"/>
<path d="M4280 4574 c0 -3 9 -17 20 -31 20 -26 28 -14 14 21 -6 15 -34 23 -34
10z"/>
<path d="M3795 3930 c-3 -5 -1 -10 4 -10 6 0 11 5 11 10 0 6 -2 10 -4 10 -3 0
-8 -4 -11 -10z"/>
<path d="M720 4746 c0 -9 7 -16 16 -16 9 0 14 5 12 12 -6 18 -28 21 -28 4z"/>
<path d="M7535 5020 c-17 -18 -17 -20 -1 -20 9 0 19 7 23 15 9 25 -2 27 -22 5z"/>
<path d="M597 3892 c-10 -10 -17 -22 -17 -25 0 -11 39 16 44 30 8 19 -8 16
-27 -5z"/>
<path d="M653 3825 c6 -36 3 -39 -40 -35 -17 1 -23 -4 -23 -19 0 -12 6 -21 15
-21 8 0 15 -4 15 -10 0 -5 -5 -10 -12 -10 -9 0 -9 -3 -1 -11 17 -17 43 -3 43
23 0 24 47 59 82 63 26 2 31 11 23 36 l-8 23 -19 -27 c-16 -22 -23 -25 -34
-16 -8 6 -14 18 -14 25 0 8 -7 14 -16 14 -13 0 -15 -7 -11 -35z"/>
<path d="M607 3843 c-12 -12 -7 -33 8 -33 17 0 19 9 7 28 -5 7 -11 9 -15 5z"/>
<path d="M390 3360 c0 -5 5 -10 10 -10 6 0 10 5 10 10 0 6 -4 10 -10 10 -5 0
-10 -4 -10 -10z"/>
<path d="M415 3070 c3 -5 10 -10 16 -10 5 0 9 5 9 10 0 6 -7 10 -16 10 -8 0
-12 -4 -9 -10z"/>
<path d="M4047 3477 c-29 -12 -33 -37 -7 -45 12 -4 13 -3 2 10 -11 13 -7 16
28 22 22 3 40 11 40 16 0 13 -27 11 -63 -3z"/>
<path d="M4110 3300 c-9 -6 -10 -10 -3 -10 6 0 15 5 18 10 8 12 4 12 -15 0z"/>
<path d="M4380 2938 c0 -4 12 -8 26 -8 14 0 23 4 19 9 -6 11 -45 10 -45 -1z"/>
<path d="M4790 3545 c-8 -9 -8 -15 -2 -15 12 0 26 19 19 26 -2 2 -10 -2 -17
-11z"/>
<path d="M2130 3450 c0 -5 5 -10 10 -10 6 0 10 5 10 10 0 6 -4 10 -10 10 -5 0
-10 -4 -10 -10z"/>
<path d="M2360 3120 c0 -5 5 -10 10 -10 6 0 10 5 10 10 0 6 -4 10 -10 10 -5 0
-10 -4 -10 -10z"/>
<path d="M2991 3104 c0 -11 3 -14 6 -6 3 7 2 16 -1 19 -3 4 -6 -2 -5 -13z"/>
<path d="M3390 3099 c0 -18 2 -19 15 -9 15 12 12 30 -6 30 -5 0 -9 -10 -9 -21z"/>
<path d="M2497 3083 c-20 -5 -18 -25 4 -31 11 -3 11 -2 -1 7 -13 9 -13 11 2
11 9 0 20 5 23 10 6 10 2 11 -28 3z"/>
<path d="M2480 2864 c-14 -13 -19 -24 -12 -24 23 0 52 20 52 35 0 21 -11 18
-40 -11z"/>
<path d="M3390 2269 c0 -5 5 -7 10 -4 6 3 10 8 10 11 0 2 -4 4 -10 4 -5 0 -10
-5 -10 -11z"/>
<path d="M5412 3366 c1 -10 8 -17 13 -17 15 1 12 24 -3 29 -9 3 -13 -2 -10
-12z"/>
<path d="M5480 3354 c0 -8 5 -12 10 -9 6 3 10 10 10 16 0 5 -4 9 -10 9 -5 0
-10 -7 -10 -16z"/>
<path d="M5547 3363 c-4 -3 -7 -13 -7 -21 0 -12 3 -12 15 -2 8 7 15 16 15 21
0 11 -14 12 -23 2z"/>
<path d="M5380 3334 c0 -17 22 -14 28 4 2 7 -3 12 -12 12 -9 0 -16 -7 -16 -16z"/>
<path d="M5490 3291 c0 -12 5 -21 10 -21 6 0 10 6 10 14 0 8 -4 18 -10 21 -5
3 -10 -3 -10 -14z"/>
<path d="M5500 3181 c0 -5 5 -13 10 -16 6 -3 10 -2 10 4 0 5 -4 13 -10 16 -5
3 -10 2 -10 -4z"/>
<path d="M5465 2780 c-16 -18 -17 -22 -3 -37 9 -10 13 -24 11 -30 -3 -7 0 -13
5 -13 6 0 16 -2 24 -5 7 -3 18 6 25 21 10 22 9 30 -9 55 -26 34 -29 35 -53 9z"/>
<path d="M4852 2710 c0 -14 2 -19 5 -12 2 6 2 18 0 25 -3 6 -5 1 -5 -13z"/>
<path d="M1465 2970 c-3 -5 -1 -10 4 -10 6 0 11 5 11 10 0 6 -2 10 -4 10 -3 0
-8 -4 -11 -10z"/>
<path d="M4300 2375 c0 -8 5 -15 10 -15 6 0 10 7 10 15 0 8 -4 15 -10 15 -5 0
-10 -7 -10 -15z"/>
<path d="M4486 1745 c4 -8 8 -15 10 -15 2 0 4 7 4 15 0 8 -4 15 -10 15 -5 0
-7 -7 -4 -15z"/>
<path d="M3904 1709 c-3 -6 -2 -15 4 -21 6 -6 11 -2 15 11 5 22 -7 29 -19 10z"/>
<path d="M4055 1230 c3 -5 8 -10 11 -10 2 0 4 5 4 10 0 6 -5 10 -11 10 -5 0
-7 -4 -4 -10z"/>
<path d="M4700 1188 c0 -19 2 -20 10 -8 13 19 13 30 0 30 -5 0 -10 -10 -10
-22z"/>
<path d="M4140 1180 c0 -5 5 -10 10 -10 6 0 10 5 10 10 0 6 -4 10 -10 10 -5 0
-10 -4 -10 -10z"/>
<path d="M4489 1147 c0 -7 -2 -24 -4 -39 -4 -31 9 -38 19 -11 6 15 9 15 17 3
9 -12 10 -12 5 3 -3 10 -6 25 -6 32 0 16 -30 29 -31 12z"/>
<path d="M4147 1133 c-11 -10 -8 -43 3 -43 6 0 10 11 10 25 0 26 -2 29 -13 18z"/>
<path d="M4350 1110 c0 -5 7 -7 15 -4 8 4 15 8 15 10 0 2 -7 4 -15 4 -8 0 -15
-4 -15 -10z"/>
<path d="M4086 1091 c-3 -5 1 -12 10 -15 20 -8 29 -1 19 13 -8 13 -22 14 -29
2z"/>
<path d="M3756 1073 c-11 -11 -6 -23 9 -23 8 0 15 4 15 9 0 13 -16 22 -24 14z"/>
<path d="M3998 1073 c7 -3 16 -2 19 1 4 3 -2 6 -13 5 -11 0 -14 -3 -6 -6z"/>
<path d="M4540 1064 c0 -14 3 -14 15 -4 8 7 15 14 15 16 0 2 -7 4 -15 4 -8 0
-15 -7 -15 -16z"/>
<path d="M4170 1060 c0 -5 5 -10 11 -10 5 0 7 5 4 10 -3 6 -8 10 -11 10 -2 0
-4 -4 -4 -10z"/>
<path d="M4330 1020 c0 -5 5 -10 11 -10 5 0 7 5 4 10 -3 6 -8 10 -11 10 -2 0
-4 -4 -4 -10z"/>
<path d="M4610 1021 c0 -12 37 -24 50 -16 5 3 10 12 10 18 0 8 -3 8 -9 -2 -7
-10 -13 -11 -30 -2 -12 7 -21 8 -21 2z"/>
<path d="M4580 989 c0 -5 9 -9 20 -9 11 0 20 2 20 4 0 2 -9 6 -20 9 -11 3 -20
1 -20 -4z"/>
<path d="M4642 841 c-11 -7 -11 -9 1 -14 16 -6 27 0 27 15 0 10 -11 10 -28 -1z"/>
<path d="M4020 749 c0 -5 5 -7 10 -4 6 3 10 8 10 11 0 2 -4 4 -10 4 -5 0 -10
-5 -10 -11z"/>
<path d="M2515 7780 c-4 -6 -3 -16 3 -22 6 -6 12 -6 17 2 4 6 3 16 -3 22 -6 6
-12 6 -17 -2z"/>
<path d="M3725 7780 c3 -5 8 -10 11 -10 2 0 4 5 4 10 0 6 -5 10 -11 10 -5 0
-7 -4 -4 -10z"/>
<path d="M3756 7774 c-9 -23 -8 -24 19 -24 18 0 25 5 25 20 0 24 -35 28 -44 4z"/>
<path d="M3920 7781 c0 -15 43 -17 80 -4 l35 12 -57 0 c-32 1 -58 -3 -58 -8z"/>
<path d="M6730 7675 c0 -8 5 -15 11 -15 5 0 7 -6 3 -12 -6 -9 -3 -9 9 0 14 12
14 16 2 28 -18 18 -25 18 -25 -1z"/>
<path d="M6690 7665 c0 -8 7 -15 15 -15 8 0 15 7 15 15 0 8 -7 15 -15 15 -8 0
-15 -7 -15 -15z"/>
<path d="M2095 7661 c-7 -12 25 -30 43 -24 6 3 12 11 12 19 0 16 -45 20 -55 5z"/>
<path d="M6600 7650 c0 -14 5 -32 10 -40 8 -12 10 -10 10 10 0 14 -5 32 -10
40 -8 12 -10 10 -10 -10z"/>
<path d="M983 7623 c-26 -56 -6 -76 21 -21 19 38 20 48 4 48 -7 0 -19 -12 -25
-27z"/>
<path d="M5740 7600 c0 -5 5 -10 11 -10 5 0 7 5 4 10 -3 6 -8 10 -11 10 -2 0
-4 -4 -4 -10z"/>
<path d="M590 7581 c0 -5 7 -12 16 -15 24 -9 28 -7 14 9 -14 17 -30 20 -30 6z"/>
<path d="M1180 7570 c0 -19 3 -21 12 -12 9 9 9 15 0 24 -9 9 -12 7 -12 -12z"/>
<path d="M2112 7570 c-23 -21 -30 -50 -12 -50 6 0 10 4 10 10 0 5 12 21 27 35
20 17 23 25 12 25 -8 0 -25 -9 -37 -20z"/>
<path d="M6727 7583 c-4 -3 -7 -15 -7 -25 0 -22 15 -16 30 13 8 14 7 19 -3 19
-8 0 -17 -3 -20 -7z"/>
<path d="M6308 7564 c-9 -8 9 -44 22 -44 14 0 12 13 -3 34 -7 9 -16 14 -19 10z"/>
<path d="M6735 7500 c-3 -5 -1 -10 4 -10 6 0 11 5 11 10 0 6 -2 10 -4 10 -3 0
-8 -4 -11 -10z"/>
<path d="M947 7494 c-4 -4 -4 -18 -1 -30 5 -19 2 -24 -12 -25 -12 0 -14 -3 -6
-6 19 -7 42 16 42 43 0 23 -10 31 -23 18z"/>
<path d="M1055 7459 c-4 -6 -5 -13 -2 -16 7 -7 27 6 27 18 0 12 -17 12 -25 -2z"/>
<path d="M732 7427 c-8 -9 -6 -26 6 -60 9 -26 19 -47 23 -47 3 0 6 22 6 50 1
53 -16 80 -35 57z"/>
<path d="M6267 7433 c-4 -3 -7 -11 -7 -17 0 -6 5 -5 12 2 6 6 9 14 7 17 -3 3
-9 2 -12 -2z"/>
<path d="M1035 7416 c-16 -12 -17 -16 -6 -29 7 -9 10 -21 7 -26 -4 -5 -1 -13
5 -17 16 -10 28 15 24 49 -5 38 -8 40 -30 23z"/>
<path d="M1940 7370 c0 -5 4 -10 9 -10 6 0 13 5 16 10 3 6 -1 10 -9 10 -9 0
-16 -4 -16 -10z"/>
<path d="M2000 7340 c0 -5 5 -10 10 -10 6 0 10 5 10 10 0 6 -4 10 -10 10 -5 0
-10 -4 -10 -10z"/>
<path d="M6100 7334 c0 -8 5 -12 10 -9 6 3 10 10 10 16 0 5 -4 9 -10 9 -5 0
-10 -7 -10 -16z"/>
<path d="M6280 7334 c0 -9 -8 -23 -17 -30 -17 -13 -17 -13 0 -14 9 0 17 -7 17
-17 0 -30 9 -8 14 35 3 23 1 42 -5 42 -5 0 -9 -7 -9 -16z"/>
<path d="M1033 7319 c-11 -11 -6 -59 7 -59 11 0 20 53 11 63 -4 4 -12 2 -18
-4z"/>
<path d="M930 7310 c0 -5 5 -10 10 -10 6 0 10 5 10 10 0 6 -4 10 -10 10 -5 0
-10 -4 -10 -10z"/>
<path d="M727 7303 c-15 -15 -7 -43 13 -43 11 0 20 4 20 9 0 5 3 16 6 25 4 11
0 16 -13 16 -11 0 -23 -3 -26 -7z"/>
<path d="M930 7260 c0 -5 5 -10 10 -10 6 0 10 5 10 10 0 6 -4 10 -10 10 -5 0
-10 -4 -10 -10z"/>
<path d="M6240 7261 c0 -6 5 -13 10 -16 6 -3 10 1 10 9 0 9 -4 16 -10 16 -5 0
-10 -4 -10 -9z"/>
<path d="M6080 7240 c0 -5 10 -19 23 -30 20 -20 21 -22 5 -31 -21 -12 -24 -39
-5 -39 7 0 18 5 25 12 14 14 16 88 2 88 -5 0 -10 -6 -10 -12 -1 -8 -6 -6 -14
5 -15 19 -26 22 -26 7z"/>
<path d="M6425 7160 c-3 -5 -1 -10 4 -10 6 0 11 5 11 10 0 6 -2 10 -4 10 -3 0
-8 -4 -11 -10z"/>
<path d="M6337 7133 c-12 -11 -8 -23 8 -23 8 0 15 7 15 15 0 16 -12 20 -23 8z"/>
<path d="M980 7105 c0 -8 5 -15 10 -15 6 0 10 7 10 15 0 8 -4 15 -10 15 -5 0
-10 -7 -10 -15z"/>
<path d="M5792 7100 c0 -14 2 -19 5 -12 2 6 2 18 0 25 -3 6 -5 1 -5 -13z"/>
<path d="M6090 7100 c0 -5 5 -10 10 -10 6 0 10 5 10 10 0 6 -4 10 -10 10 -5 0
-10 -4 -10 -10z"/>
<path d="M6300 7090 c0 -5 5 -10 10 -10 6 0 10 5 10 10 0 6 -4 10 -10 10 -5 0
-10 -4 -10 -10z"/>
<path d="M722 7069 c2 -6 8 -10 13 -10 5 0 11 4 13 10 2 6 -4 11 -13 11 -9 0
-15 -5 -13 -11z"/>
<path d="M6308 7048 c-5 -13 18 -78 27 -78 3 0 4 16 2 35 -4 40 -21 65 -29 43z"/>
<path d="M5780 7040 c0 -5 5 -10 10 -10 6 0 10 5 10 10 0 6 -4 10 -10 10 -5 0
-10 -4 -10 -10z"/>
<path d="M670 7020 c0 -11 6 -20 13 -20 22 0 27 11 12 26 -19 19 -25 18 -25
-6z"/>
<path d="M723 6996 c2 -30 27 -50 27 -22 0 9 -4 16 -9 16 -5 0 -12 8 -15 18
-2 9 -4 4 -3 -12z"/>
<path d="M950 6980 c0 -5 7 -10 15 -10 8 0 15 5 15 10 0 6 -7 10 -15 10 -8 0
-15 -4 -15 -10z"/>
<path d="M632 6954 c1 -9 9 -19 16 -22 9 -3 13 2 10 14 -1 9 -9 19 -16 22 -9
3 -13 -2 -10 -14z"/>
<path d="M950 6941 c-5 -11 -10 -31 -10 -46 0 -64 -41 -168 -59 -150 -3 3 -4
26 -2 50 2 34 -1 47 -14 51 -23 9 -29 -1 -27 -46 2 -28 -2 -42 -15 -50 -13 -8
-14 -10 -3 -9 8 1 22 1 30 0 12 -1 12 -3 2 -10 -16 -9 -19 -47 -8 -73 7 -15 3
-18 -18 -18 -14 0 -26 -4 -26 -10 0 -5 13 -7 28 -4 38 8 63 -19 33 -36 -26
-13 -27 -30 -3 -31 10 0 12 -3 5 -6 -7 -2 -13 -15 -13 -28 0 -14 -7 -25 -19
-28 -28 -7 -33 3 -16 29 13 20 12 23 -2 28 -19 8 -29 -5 -43 -54 -8 -27 -6
-38 6 -50 10 -10 17 -12 22 -4 12 19 40 23 52 8 7 -8 9 -14 4 -14 -5 0 -2 -6
7 -13 9 -7 19 -30 23 -51 4 -22 13 -48 21 -58 12 -18 13 -18 19 4 3 13 6 40 6
60 0 20 5 49 11 65 17 43 22 122 8 139 -9 11 -9 14 1 14 8 0 10 8 6 23 -3 14
2 35 14 55 11 18 15 32 10 32 -12 0 -1 52 13 61 9 6 9 37 3 134 -3 54 -26 72
-46 36z"/>
<path d="M630 6904 c1 -23 26 -41 47 -33 28 10 39 29 16 29 -10 0 -28 3 -40 6
-13 4 -23 2 -23 -2z"/>
<path d="M5599 6880 c-8 -21 -4 -52 8 -61 22 -19 28 -1 10 34 -8 17 -17 30
-18 27z"/>
<path d="M630 6675 c-7 -8 -21 -15 -31 -15 -25 0 -24 -26 1 -33 12 -3 20 -14
20 -25 0 -11 5 -22 12 -24 7 -3 8 -9 3 -18 -5 -8 -10 -24 -11 -37 -2 -17 2
-23 17 -23 27 0 34 25 21 74 -7 25 -7 45 -1 51 6 5 9 5 9 -3 0 -20 16 -13 17
7 1 11 -5 22 -13 25 -7 3 -11 12 -8 21 8 20 -19 20 -36 0z"/>
<path d="M1066 6665 c4 -8 8 -15 10 -15 2 0 4 7 4 15 0 8 -4 15 -10 15 -5 0
-7 -7 -4 -15z"/>
<path d="M1030 6636 c0 -8 4 -17 9 -20 5 -3 7 -15 4 -25 -3 -11 0 -28 6 -38 6
-10 11 -13 11 -6 0 6 7 18 15 27 13 13 14 19 3 38 -21 37 -48 51 -48 24z"/>
<path d="M1105 6640 c-4 -6 -3 -16 3 -22 6 -6 12 -6 17 2 4 6 3 16 -3 22 -6 6
-12 6 -17 -2z"/>
<path d="M7469 6630 c24 -21 41 -26 41 -12 0 15 -24 32 -44 32 -20 -1 -20 -1
3 -20z"/>
<path d="M7390 6620 c0 -5 5 -10 10 -10 6 0 10 5 10 10 0 6 -4 10 -10 10 -5 0
-10 -4 -10 -10z"/>
<path d="M7380 6556 c0 -19 5 -38 10 -41 6 -4 8 -15 5 -26 -4 -11 -2 -19 4
-19 6 0 11 -7 11 -15 0 -8 5 -15 11 -15 7 0 8 7 4 18 -15 37 -18 82 -6 82 23
0 7 45 -16 48 -20 3 -23 -1 -23 -32z"/>
<path d="M7480 6539 c0 -5 5 -7 10 -4 6 3 10 8 10 11 0 2 -4 4 -10 4 -5 0 -10
-5 -10 -11z"/>
<path d="M1040 6503 c0 -5 5 -15 10 -23 8 -12 10 -11 10 8 0 12 -4 22 -10 22
-5 0 -10 -3 -10 -7z"/>
<path d="M7490 6483 c0 -11 -5 -24 -12 -31 -8 -8 -5 -14 17 -22 32 -12 43 -7
26 14 -7 8 -11 22 -9 32 2 9 -3 19 -9 21 -8 3 -13 -3 -13 -14z"/>
<path d="M7771 6473 c0 -5 4 -17 9 -28 8 -18 9 -17 9 8 1 15 -3 27 -9 27 -5 0
-10 -3 -9 -7z"/>
<path d="M631 6407 c-9 -23 -8 -31 4 -43 20 -21 28 0 16 41 l-8 30 -12 -28z"/>
<path d="M775 6420 c-3 -5 1 -10 10 -10 9 0 13 5 10 10 -3 6 -8 10 -10 10 -2
0 -7 -4 -10 -10z"/>
<path d="M7401 6394 c0 -11 3 -14 6 -6 3 7 2 16 -1 19 -3 4 -6 -2 -5 -13z"/>
<path d="M7460 6402 c0 -5 7 -13 16 -16 10 -4 14 -1 12 6 -5 15 -28 23 -28 10z"/>
<path d="M6285 6338 c-10 -24 -2 -38 12 -23 6 7 8 18 3 26 -7 11 -10 10 -15
-3z"/>
<path d="M7375 6329 c-4 -6 -5 -13 -2 -16 7 -7 27 6 27 18 0 12 -17 12 -25 -2z"/>
<path d="M787 6284 c-3 -3 0 -15 6 -25 15 -24 -1 -53 -31 -57 -15 -2 -21 -12
-24 -43 -3 -28 0 -39 10 -39 10 0 12 -7 8 -25 -5 -18 -2 -25 8 -25 22 0 27
-15 16 -46 -12 -31 -6 -74 11 -74 6 0 8 7 5 16 -11 29 5 116 23 121 9 2 26 24
38 49 22 44 22 44 2 55 -11 5 -29 7 -39 4 -12 -4 -20 -2 -20 4 0 6 7 11 15 11
16 0 20 16 6 24 -4 3 -6 17 -3 31 4 24 -14 35 -31 19z"/>
<path d="M6185 6270 c-8 -13 -1 -24 14 -19 6 3 7 10 2 18 -6 10 -10 10 -16 1z"/>
<path d="M6185 6230 c-3 -5 -4 -10 -1 -10 2 0 -2 -23 -9 -51 -15 -54 -10 -105
11 -126 7 -7 10 -22 7 -33 -3 -11 0 -20 6 -20 6 0 11 -10 11 -21 0 -20 1 -20
21 5 19 25 20 32 10 90 -6 34 -11 78 -11 96 0 19 -7 38 -17 46 -12 9 -14 13
-5 14 14 0 6 20 -8 20 -5 0 -12 -4 -15 -10z"/>
<path d="M6366 6215 c-20 -20 -20 -25 -2 -25 8 0 17 7 20 16 9 24 1 28 -18 9z"/>
<path d="M6310 6175 c0 -25 14 -33 25 -15 3 6 1 10 -5 10 -7 0 -10 7 -6 15 3
8 1 15 -4 15 -6 0 -10 -11 -10 -25z"/>
<path d="M5999 6178 c-8 -19 -3 -48 7 -52 9 -3 14 2 14 14 0 11 0 23 1 27 0 7
-20 18 -22 11z"/>
<path d="M6330 6121 c0 -10 -6 -21 -14 -24 -14 -5 -27 -80 -18 -104 2 -7 13
-13 23 -13 17 0 19 7 17 63 -1 34 2 70 6 80 5 10 4 17 -3 17 -6 0 -11 -9 -11
-19z"/>
<path d="M7760 6111 c-5 -11 -7 -27 -4 -36 5 -13 9 -11 20 11 8 14 14 30 14
35 0 16 -19 9 -30 -10z"/>
<path d="M835 5911 c3 -11 1 -22 -4 -25 -15 -10 8 -66 27 -66 10 0 22 11 29
25 9 20 8 25 -2 25 -7 0 -16 14 -20 30 -4 17 -13 30 -21 30 -11 0 -13 -6 -9
-19z"/>
<path d="M861 5792 c-6 -11 -6 -24 0 -33 7 -11 9 -11 9 4 0 9 5 17 10 17 6 0
10 7 10 15 0 21 -17 19 -29 -3z"/>
<path d="M480 5791 c0 -5 7 -14 15 -21 8 -7 12 -16 9 -21 -3 -5 2 -9 11 -9 18
0 18 39 0 52 -14 11 -35 10 -35 -1z"/>
<path d="M6201 5504 c0 -11 3 -14 6 -6 3 7 2 16 -1 19 -3 4 -6 -2 -5 -13z"/>
<path d="M7670 5412 c0 -12 19 -26 26 -19 2 2 -2 10 -11 17 -9 8 -15 8 -15 2z"/>
<path d="M7710 5355 c0 -8 9 -19 20 -25 11 -6 20 -21 20 -34 0 -19 4 -23 20
-19 15 4 20 14 20 37 0 27 -5 34 -33 44 -43 15 -47 15 -47 -3z"/>
<path d="M7630 5293 c1 -18 28 -55 33 -46 10 15 -4 53 -19 53 -8 0 -14 -3 -14
-7z"/>
<path d="M7706 5228 c10 -34 26 -50 37 -39 5 5 2 19 -8 35 -21 32 -39 34 -29
4z"/>
<path d="M7760 5206 c0 -7 7 -19 15 -26 13 -11 15 -8 15 14 0 16 -5 26 -15 26
-8 0 -15 -6 -15 -14z"/>
<path d="M7705 4809 c-4 -6 -5 -12 -3 -14 7 -7 48 7 48 16 0 13 -37 11 -45 -2z"/>
<path d="M6475 1210 c3 -5 18 -10 33 -9 24 0 25 1 7 9 -28 12 -47 12 -40 0z"/>
<path d="M6935 1100 c3 -5 11 -10 16 -10 6 0 7 5 4 10 -3 6 -11 10 -16 10 -6
0 -7 -4 -4 -10z"/>
<path d="M7028 993 c7 -3 16 -2 19 1 4 3 -2 6 -13 5 -11 0 -14 -3 -6 -6z"/>
<path d="M6700 650 c36 -12 62 -12 55 0 -3 6 -23 10 -43 9 -33 -1 -34 -2 -12
-9z"/>
<path d="M2084 160 c-12 -38 -9 -49 7 -33 6 6 9 23 7 39 l-4 29 -10 -35z"/>
<path d="M5886 85 c3 -33 10 -67 15 -75 13 -23 10 26 -7 85 l-13 50 5 -60z"/>
<path d="M2062 83 c-6 -11 -7 -25 -3 -32 6 -9 10 -4 14 16 6 34 2 41 -11 16z"/>
</g>
</svg>
